<svg xmlns="http://www.w3.org/2000/svg" xmlns:xlink="http://www.w3.org/1999/xlink" viewBox="0 0 105 105"><defs><style>.a{fill:url(#a);}.b{fill:#fff;}</style><linearGradient id="a" x1="15.38" y1="89.62" x2="89.62" y2="15.38" gradientUnits="userSpaceOnUse"><stop offset="0" stop-color="#cfc0a6"/><stop offset="1" stop-color="#e0d7c6"/></linearGradient></defs><circle class="a" cx="52.5" cy="52.5" r="52.5"/><path class="b" d="M6.54,37.56a60,60,0,0,0,7.91-5.9c1.37-1.11,2.71-2.27,4.07-3.39a12.69,12.69,0,0,1,9.86-2.95,5.28,5.28,0,0,1,3.88,2.22C36.77,33.63,41.41,39.62,46,45.62c.47.6.53,1,0,1.59-1.1,1.25-1.06,1.28-2.62.78S40,46.87,38.29,46.33a1.77,1.77,0,0,0-1.93.35,1.69,1.69,0,0,0,.78,2.85c2,.68,3.92,1.3,5.89,1.92.61.19.95.43.95,1.17s-.35,1-.95,1.17C35.9,56.17,28.77,58.54,21.67,61a5.24,5.24,0,0,1-4.24-.28,12.26,12.26,0,0,1-6.6-8c-1.18-4.2-2.08-8.49-3.44-12.65a11.83,11.83,0,0,0-.85-2.16Z"/><path class="b" d="M77,91.49c-3.32,0-6.63.23-9.94.52A13.84,13.84,0,0,1,57,89.3a8.44,8.44,0,0,1-1.58-1.58A4.28,4.28,0,0,1,54.47,85c0-7.67,0-15.33,0-23,0-.5-.09-1,.57-1.27a1,1,0,0,1,1.36.37C57.57,62.75,58.77,64.36,60,66a2.07,2.07,0,0,0,1.22,1A1.62,1.62,0,0,0,63,66.31a1.68,1.68,0,0,0,0-2c-1.19-1.66-2.35-3.32-3.6-4.93-.54-.69-.62-1.23,0-1.85a1.15,1.15,0,0,0,.3-.45c.29-.79.8-.75,1.5-.52,6,2,11.9,4,17.86,6,1.27.43,2.53.93,3.83,1.27a4.59,4.59,0,0,1,2.85,2.3A12.37,12.37,0,0,1,86.43,77c-1.75,4.61-3.82,9.11-5.09,13.89-.14.5-.42.57-.86.57C79.32,91.48,78.15,91.49,77,91.49Z"/><path class="b" d="M51.13,73.77c0,3.65-.05,7.31,0,11a4.69,4.69,0,0,1-1.3,3.42,12.35,12.35,0,0,1-10.13,4.09c-4.93-.24-9.84-.75-14.79-.55-.37,0-.69,0-.82-.46a110.89,110.89,0,0,0-5-13.65,13.5,13.5,0,0,1-.39-9,8.89,8.89,0,0,1,.85-2,4.42,4.42,0,0,1,2.61-2.15c7.19-2.38,14.35-4.83,21.52-7.25,1.27-.43,1.24-.41,2,.67a.9.9,0,0,1,0,1.26c-1,1.37-2,2.76-3,4.14-.25.34-.5.67-.72,1a1.76,1.76,0,0,0,.3,2.48,1.79,1.79,0,0,0,2.46-.51c1.22-1.63,2.48-3.24,3.58-5,.68-1.07,1.4-.48,2.16-.34s.69.7.69,1.24Z"/><path class="b" d="M50.75,40.39c0,1,0,2.09,0,3.14,0,.48-.07.88-.62,1s-.76-.19-1-.53c-4.58-6-9-12.07-13.79-17.94-1.87-2.3-1.78-4.5-.89-6.91a13,13,0,0,1,5.61-6.79c3.8-2.33,7.6-4.67,11.16-7.36,1.24-.93,1.22-.94,2.44,0,3.7,2.82,7.72,5.14,11.61,7.67A12.51,12.51,0,0,1,71,21.82a4.49,4.49,0,0,1-.84,3.38C65.6,31.45,61.07,37.74,56.53,44c-.43.6-.78.9-1.6.62s-.82-.81-.82-1.45c0-2,0-3.9,0-5.84,0-1.27-.63-2-1.72-1.94s-1.62.65-1.64,1.91c0,1,0,2,0,3.06Z"/><path class="b" d="M67.2,46.21a3.36,3.36,0,0,0-1.17.27c-1.85.6-3.72,1.16-5.55,1.82-.84.3-1-.33-1.38-.75s-.34-.79,0-1.25q7.17-9.84,14.29-19.69A4.64,4.64,0,0,1,77.11,25,12.86,12.86,0,0,1,86.67,28c3.32,2.79,6.63,5.6,10.14,8.16.55.4,1.41.58,1.61,1.2s-.4,1.27-.61,1.92c-1.39,4.24-2.37,8.59-3.51,12.89a12.62,12.62,0,0,1-6.3,8,4.78,4.78,0,0,1-4.12.37C76.62,58.1,69.32,55.69,62,53.24c-.2-.07-.39-.15-.59-.21-.42-.12-.51-.44-.54-.83s.3-.53.61-.63l6-1.94c1.1-.37,1.67-1.16,1.5-2A1.68,1.68,0,0,0,67.2,46.21Z"/><path class="b" d="M57.44,52.66a5,5,0,0,1-5,5.08,5.09,5.09,0,0,1-5-5,5.23,5.23,0,0,1,5.15-5.07A5.07,5.07,0,0,1,57.44,52.66Z"/></svg>