<svg xmlns="http://www.w3.org/2000/svg" xmlns:xlink="http://www.w3.org/1999/xlink" viewBox="0 0 105 105"><defs><style>.a{fill:url(#a);}.b{fill:#fff;}.c{fill:none;stroke:#fff;stroke-miterlimit:10;stroke-width:1.58px;}.d{fill:url(#b);}.e{fill:url(#c);}.f{fill:url(#d);}</style><linearGradient id="a" x1="15.38" y1="89.62" x2="89.62" y2="15.38" gradientUnits="userSpaceOnUse"><stop offset="0" stop-color="#cfc0a6"/><stop offset="1" stop-color="#e0d7c6"/></linearGradient><linearGradient id="b" x1="48.81" y1="91.54" x2="56.56" y2="91.54" xlink:href="#a"/><linearGradient id="c" x1="59.97" y1="77.23" x2="71.01" y2="77.23" xlink:href="#a"/><linearGradient id="d" x1="33.92" y1="77.24" x2="44.95" y2="77.24" xlink:href="#a"/></defs><circle class="a" cx="52.5" cy="52.5" r="52.5"/><path class="b" d="M52.15,99.16a22.16,22.16,0,0,0,12.46-3.78s0,0,0,0c.5-.33,1-.71,1.47-1.09a22.51,22.51,0,0,0,3.95-4.33,21.67,21.67,0,0,0,4-12.64c0-1.68,0-3.38,0-5.06v-.94c0-.89-.1-1.24-.6-1.39a3.5,3.5,0,0,0-.89-.08c-9,0-18-.07-27,0a2.12,2.12,0,0,1-2.12-1.28,24.43,24.43,0,0,1-1.64-4.6c-.34-1.05-.65-2.1-1-3.12a5.46,5.46,0,0,0-.38-.72c-.12-.21-.29-.42-.52-.38s-.4.28-.48.51a15.29,15.29,0,0,0-.65,2.69,42.37,42.37,0,0,1-1,4.85c-.11.35-.26.71-.38,1.07a1.54,1.54,0,0,1-1.66,1c-1.37,0-2.73,0-4.1,0a1.85,1.85,0,0,0-.73.12c-.38.15-.53.49-.53,1.07v.8a64.57,64.57,0,0,0,.24,8.57A21.19,21.19,0,0,0,37.7,93.73c.55.5,1.12,1,1.71,1.4A25,25,0,0,0,52.15,99.16Z"/><path class="c" d="M88.23,50.26a38,38,0,0,0-6.33-11v0l0,0s-.06-.08-.1-.1v0a34.82,34.82,0,0,0-3-3.19h0A38,38,0,0,0,52.47,25.3a36.36,36.36,0,0,0-8.33.93A38.06,38.06,0,0,0,14.36,63.39c0,.32,0,.65,0,1v0a38.31,38.31,0,0,0,1.25,8.82v0c0,.17.1.35.14.52A29.88,29.88,0,0,0,31.48,92.19a46.19,46.19,0,0,0,7.92,3.06,20.62,20.62,0,0,1-1.71-1.41,21.21,21.21,0,0,1-7.11-13.35,77.27,77.27,0,0,1-.23-9.38c0-.87.31-1.15,1.25-1.19,1.37,0,2.74,0,4.1,0a1.52,1.52,0,0,0,1.67-1c.12-.36.27-.7.36-1.06A41.74,41.74,0,0,0,38.78,63a16.45,16.45,0,0,1,.64-2.69c.1-.23.19-.47.48-.49s.41.17.53.38a5.21,5.21,0,0,1,.38.7c.32,1,.62,2.09,1,3.13a25.76,25.76,0,0,0,1.63,4.61,2.18,2.18,0,0,0,2.13,1.27c9,0,18,0,27,0,1.25,0,1.47.21,1.47,1.48,0,2,0,4,0,6a22,22,0,0,1-9.44,18.1,46.77,46.77,0,0,0,10-3.86A28.92,28.92,0,0,0,88.7,75.23a37.86,37.86,0,0,0-.47-25Z"/><path class="d" d="M56.56,90.34a4.35,4.35,0,0,1-3.92,4A2.66,2.66,0,0,1,51.53,94,4.32,4.32,0,0,1,50,93a4,4,0,0,1-1.17-3c.09-1.07.62-1.53,1.56-1.08a4.89,4.89,0,0,0,4.51,0A1.23,1.23,0,0,1,56,88.92a.45.45,0,0,1,.16.12.62.62,0,0,0,.09.12A2,2,0,0,1,56.56,90.34Z"/><path class="e" d="M70.76,75.9a2.43,2.43,0,0,1-2.93,1c-.45-.14-.9-.31-1.41-.49.51,1.45.39,2.24-.4,2.91a2,2,0,0,1-2.17.29.84.84,0,0,1-.2-.08,1.18,1.18,0,0,1-.28-.2,1.05,1.05,0,0,1-.32-.31,2.82,2.82,0,0,1-.27-2.37s0,0-.06,0a3.81,3.81,0,0,0-1.41,1.2c-.26.32-.54.62-.94.4a1.13,1.13,0,0,1-.22-.14c-.37-.37-.11-.73.15-1.07a5.73,5.73,0,0,1,6.8-1.82l.76.32a1.31,1.31,0,0,0,1.87-.46c.27-.31.56-.61,1-.34a.63.63,0,0,1,.17.15C71.14,75.23,71,75.57,70.76,75.9Z"/><path class="f" d="M44.75,78.17a.56.56,0,0,1-.64.13,1,1,0,0,1-.32-.24.63.63,0,0,1-.11-.12c-.16-.17-.31-.34-.48-.5s-.3-.29-.45-.45l-.31-.21-.37-.22c.45,1.27.32,2.31-.82,3a2.28,2.28,0,0,1-2.36-.25c-.76-.65-.86-1.42-.37-2.89,0,0-.06,0-.08,0L37,77a2.38,2.38,0,0,1-1.74-.16,2.21,2.21,0,0,1-.8-.55A1.44,1.44,0,0,1,34.2,76a1.24,1.24,0,0,1-.18-.31.61.61,0,0,1,.17-.85.56.56,0,0,1,.62-.08,1.4,1.4,0,0,1,.2.16,3.4,3.4,0,0,0,1,.8c.37.17.71,0,1.55-.32a5.93,5.93,0,0,1,5.11,0,5.35,5.35,0,0,1,1.51,1.16,4.65,4.65,0,0,1,.45.53l.05,0C44.93,77.47,45.12,77.83,44.75,78.17Z"/><path class="c" d="M53.41,8a20.69,20.69,0,0,1,13.42,5,12.52,12.52,0,0,1,4.51,11.72,2.14,2.14,0,0,1-.07.43c-.84,2.91-1.34,2.69-3.44,1.81a38,38,0,0,0-31.62.47c-.86.38-1.24.27-1.61-.58a11,11,0,0,1,.86-10.3c2.26-3.89,5.84-6.1,10-7.47A24.62,24.62,0,0,1,53.41,8Z"/><path class="c" d="M32.72,6.1a2.82,2.82,0,0,1,2.73.19c.94.6,1.87,1.22,2.79,1.83s.91,1.05,0,1.73C36.85,11,36.58,11,35.08,10c-1.29-.86-2.6-1.7-3.9-2.56A1.3,1.3,0,0,1,30.71,7Z"/><path class="c" d="M73.58,7a2.83,2.83,0,0,0-2.73.19C69.92,7.78,69,8.39,68.07,9s-.92,1.06,0,1.74c1.42,1.11,1.7,1.11,3.2.16,1.28-.86,2.59-1.7,3.9-2.56a1.49,1.49,0,0,0,.47-.43Z"/></svg>