<svg xmlns="http://www.w3.org/2000/svg" xmlns:xlink="http://www.w3.org/1999/xlink" viewBox="0 0 105 105"><defs><style>.a{fill:url(#a);}.b{fill:#fff;}</style><linearGradient id="a" x1="15.38" y1="89.62" x2="89.62" y2="15.38" gradientUnits="userSpaceOnUse"><stop offset="0" stop-color="#cfc0a6"/><stop offset="1" stop-color="#e0d7c6"/></linearGradient></defs><circle class="a" cx="52.5" cy="52.5" r="52.5"/><path class="b" d="M98.75,46.63c-.3-1.52-.78-3-1.19-4.62-2,.53-3.7,1-5.57,1.53A37,37,0,0,1,90.37,71,39.19,39.19,0,0,1,70.15,90.69C54.88,97.63,38,94.2,28.21,86.83H64.55l.08-.3a36.41,36.41,0,0,0-18.56-4.89c.58-.41.85-.6,1.13-.83,5.53-4,10-8.75,12.75-14.86a13.9,13.9,0,0,0,1.43-6.7,5.86,5.86,0,0,0-5.07-5.69c-.25-.06-.49-.15-.81-.25a2.84,2.84,0,0,1,.43-.43Q65,44.9,74,37a2,2,0,0,1,1.32-.42,35.79,35.79,0,0,0,18.46-4.47c.29-.15.49-.32.74-.47,0-.08-.06-.15-.08-.23H87.26a9.49,9.49,0,0,0,4.45-5.09,8.85,8.85,0,0,0,.44-1.79,1.07,1.07,0,0,0-.1-.72l0,0s0,0,0-.05a2.15,2.15,0,0,0-1.44-.08c-.22,0-.45.08-.68.1a36.79,36.79,0,0,1-13.07,0c-2.24-.45-2.56-.13-2.26,1.12a10.42,10.42,0,0,0,3.36,5.37,10.8,10.8,0,0,0,1.75,1.17c-1.38,0-2.51.06-3.6,0a5,5,0,0,0-3,.8c-5.3,3.11-10.64,6.16-15.94,9.24-.28.15-.6.3-1,.53Q51.44,33,46.82,24.25a2,2,0,0,1,1,.22c7,3.28,15.25-.56,16.88-7.84A1.27,1.27,0,0,0,64,15c-1.55-.93-3-1.91-4.62-3,.88-1,1.68-1.9,2.58-3C59.4,8,57.08,6.91,54.69,5.89a8.44,8.44,0,0,0-1.59-.52.06.06,0,0,0-.05,0h-.17l-1.56,0c-.59,0-1.17,0-1.76.08l-1.77.13a5.84,5.84,0,0,0-2.55.74,10.69,10.69,0,0,0-2.43,2.05c-1,1.1-2,2.29-3,3.34a4.3,4.3,0,0,1-1.7,1.1C18.87,18.72,6,35.24,5.39,53.86A47.13,47.13,0,0,0,50,99.6c.83,0,1.66.05,2.49.05.3,0,.6,0,.91,0,.73,0,1.47,0,2.18-.09s1.15-.08,1.74-.13A47.13,47.13,0,0,0,99.61,54,41,41,0,0,0,98.75,46.63ZM35.24,40.45,54.63,53.31A23.74,23.74,0,0,0,44,56.72a42.91,42.91,0,0,0-8.75,6.83Z"/></svg>