<svg xmlns="http://www.w3.org/2000/svg" xmlns:xlink="http://www.w3.org/1999/xlink" viewBox="0 0 105 105"><defs><style>.a{fill:url(#a);}.b{fill:#fff;}</style><linearGradient id="a" x1="15.38" y1="89.62" x2="89.62" y2="15.38" gradientUnits="userSpaceOnUse"><stop offset="0" stop-color="#cfc0a6"/><stop offset="1" stop-color="#e0d7c6"/></linearGradient></defs><circle class="a" cx="52.5" cy="52.5" r="52.5"/><path class="b" d="M36.62,10.37A19.08,19.08,0,0,0,30,16.86a19.28,19.28,0,0,0-1.47,3c-.51,1.32-.12,1.91,1.29,2A15.79,15.79,0,0,1,41,26.76c4.61,4.9,6,10.7,3.81,17.07s-6.9,10.1-13.56,11c-9.08,1.29-17.83-5.28-18.5-14.47C12,30,15.23,20.86,24.12,14.48A24.91,24.91,0,0,1,35.6,10.24a5.31,5.31,0,0,1,.69,0C36.34,10.21,36.4,10.26,36.62,10.37Z"/><path class="b" d="M26.92,83.76c.46-.1.7.16,1,.3A18.79,18.79,0,0,0,39,85.84c1.59-.23,1.91-.83,1.2-2.26a16.61,16.61,0,1,1,22.41,7.1C57.64,93.29,52.43,95,46.8,94.77c-8.31-.3-14.83-4-19.74-10.67A1.45,1.45,0,0,1,26.92,83.76Z"/><path class="b" d="M89.62,54c-.15-1.09-.26-2.18-.45-3.26a18.27,18.27,0,0,0-3.62-8.06c-1.08-1.4-1.69-1.37-2.66.07a16.16,16.16,0,0,1-13.77,7.58,16.62,16.62,0,1,1,.2-33.23,15.55,15.55,0,0,1,7.85,2.21c5.41,3.25,9.92,7.38,12.68,13.17,3.3,7,3.19,14,.24,21C90,53.69,90,54,89.62,54Z"/></svg>