<svg xmlns="http://www.w3.org/2000/svg" xmlns:xlink="http://www.w3.org/1999/xlink" viewBox="0 0 105 105"><defs><style>.a{fill:url(#a);}.b{fill:#fff;}</style><linearGradient id="a" x1="15.38" y1="89.62" x2="89.62" y2="15.38" gradientUnits="userSpaceOnUse"><stop offset="0" stop-color="#edd18c"/><stop offset="1" stop-color="#f3df8d"/></linearGradient></defs><circle class="a" cx="52.5" cy="52.5" r="52.5"/><path class="b" d="M26.89,15c.55.23.75.49.59,1.14A17,17,0,0,0,42.63,36.57a25.74,25.74,0,0,1,4.29.4,13.85,13.85,0,0,1,7.21,22.81,21.72,21.72,0,0,0-4,5.73c-1.62,3.7-1.44,7.61-1.41,11.48a.61.61,0,0,0,.41.64c.36.15.58-.11.81-.33,3.68-3.74,7.52-7.35,11-11.22,5.66-6.3,7.31-13.7,5.17-21.87A22.87,22.87,0,0,0,44.3,27.33a3.51,3.51,0,0,1-1.89-.51,3,3,0,0,1-1.25-3.37,2.86,2.86,0,0,1,2.89-2.09H66.88c6.42,0,12.81,0,19.25,0-.53-.62-1.07-1.2-1.64-1.78l-1.56-.27c-9.24-1.7-18.5-3.37-27.77-5.08-1.78-.33-3.58-.53-5.11-1.78a9.47,9.47,0,0,0-6.26-2H31.68L31.5,10a39.83,39.83,0,0,0-10.8,8.39,57.13,57.13,0,0,0-8,11l.25.14a56.28,56.28,0,0,1,8.17-10.8,45.6,45.6,0,0,1,4.75-4.25Z"/><path class="b" d="M101.75,51.18a10.11,10.11,0,0,0-9.85,8.24A41,41,0,0,1,51.8,92.11a40.5,40.5,0,0,1-16.47-3.45c-.6-.28-1.2-.55-1.8-.86,0-5.68,0-10.73,0-13A46.3,46.3,0,0,1,34,66.73a32.31,32.31,0,0,1,9.32-17.64q3.16-3.17,6.29-6.35c.78-.79.75-1.1-.2-1.62a10.55,10.55,0,0,0-10.83,0,18.61,18.61,0,0,0-5,4.85,41,41,0,0,0-9.28,25.26c-.11,4.8,0,9.62,0,14.46v4.74a4.53,4.53,0,0,0,2.25,3.91A48.14,48.14,0,0,0,31.66,97c.62.27,1.24.53,1.87.76a49.55,49.55,0,0,0,18.27,3.46,50.1,50.1,0,0,0,50-50Z"/><path class="b" d="M51.69,58.05a10.83,10.83,0,0,0,1.58-13c-.53-.93-.83-1-1.55-.25-2.59,2.61-5.26,5.14-7.71,7.87C39.25,58,36.72,63.15,36.55,70.3c-.06,2.72,0,4.16,0,6.88,0,0,0,2.35,0,2.35v7.15c0,.36-.08.8.37,1s.6-.15.82-.37c2.48-2.5,4.94-5,7.42-7.49a2.09,2.09,0,0,0,.64-1.57c0-2.26,0-4.52,0-6.79a13.89,13.89,0,0,1,.24-3C46.62,64,48.58,61.28,51.69,58.05Z"/></svg>