<svg xmlns="http://www.w3.org/2000/svg" xmlns:xlink="http://www.w3.org/1999/xlink" viewBox="0 0 105 105"><defs><style>.a{fill:url(#a);}.b{fill:#fff;}</style><linearGradient id="a" x1="15.38" y1="89.62" x2="89.62" y2="15.38" gradientUnits="userSpaceOnUse"><stop offset="0" stop-color="#edd18c"/><stop offset="1" stop-color="#f3df8d"/></linearGradient></defs><circle class="a" cx="52.5" cy="52.5" r="52.5"/><path class="b" d="M37.84,36.33c-3.18-.08-7.13.09-11.07-.09A11.63,11.63,0,0,1,16,26.11a11.42,11.42,0,0,1,9.56-12.63,3.8,3.8,0,0,0,3.18-2.24A10.81,10.81,0,0,1,39,5.51,11.05,11.05,0,0,1,49.1,12.3a1.61,1.61,0,0,0,1.53,1,10.94,10.94,0,0,1,9.75,7,10.9,10.9,0,0,1-1.74,11.8c-2.52,3.1-5.94,4.25-9.84,4.23C45.4,36.32,42,36.33,37.84,36.33Z"/><path class="b" d="M86,48.64A30.38,30.38,0,0,1,75.79,64c-1,.83-2,1.67-3,2.49a1.53,1.53,0,0,0-.66,1.32c.22,5.73-1.38,11.09-3.35,16.37a19.8,19.8,0,0,0-1,3.21,3.88,3.88,0,0,0,1.65,4.11,20.19,20.19,0,0,0,4.76,2.32c.46.19.95.37,1.44.55a48.77,48.77,0,0,1-35.57,3.09c0-.06,0-.11,0-.17A2.29,2.29,0,0,1,41.25,95a8.41,8.41,0,0,1,2.48-.76,15.33,15.33,0,0,0,7.17-3.53,52,52,0,0,0,5.7-5.41c.36-.43.9-.84.59-1.5s-1-.57-1.62-.53c-.8,0-1.6,0-2.39.06-6,.08-11.87.23-17.81.18A13.24,13.24,0,0,1,23.66,76.8c-.19-.31-.56-.66-.35-1s.7-.19,1.07-.19c1.39,0,2.75,0,4.13,0,1.56,0,3.14-.14,4.56.78a3.57,3.57,0,0,0,2,.39c6.56-.12,13.15-.22,19.71-.31,2.3,0,4.62-.08,6.92-.06a1.88,1.88,0,0,0,1.79-1,13.68,13.68,0,0,0-6.25-19.46c-3.8-1.65-7.62-3.21-11.42-4.85a20.38,20.38,0,0,1-9.72-8.57c-.56-.93-.48-1.07.59-1.07,2,0,4.05,0,6.06,0a1.46,1.46,0,0,1,1.16.33C46,43.88,48.7,45,51.4,46.07c2.85,1.18,5.67,2.39,8.5,3.62A20,20,0,0,1,69.31,58c.87,1.44,1.28,1.52,2.59.42a22.85,22.85,0,0,0,7-10,1.4,1.4,0,0,1,1.6-1.13c1.5.06,3,0,4.51,0C86.33,47.31,86.37,47.37,86,48.64Z"/><path class="b" d="M26,70.44c-3.53,0-6.39,0-9.24,0A10.1,10.1,0,0,1,15,50.35a1.72,1.72,0,0,0,1.48-1,9.7,9.7,0,0,1,8.87-5.3,9.71,9.71,0,0,1,8.92,5.38,1.58,1.58,0,0,0,1.33.91,10.06,10.06,0,0,1,.22,19.91C32.34,70.71,28.8,70.31,26,70.44Z"/><path class="b" d="M80.24,43.49c-2.88,0-5.77,0-8.65,0A9.8,9.8,0,0,1,70.47,24a1.35,1.35,0,0,0,1.11-.76,9.84,9.84,0,0,1,17.36,0,1.39,1.39,0,0,0,1.19.78,9.8,9.8,0,0,1,.58,19.34,9.71,9.71,0,0,1-2,.19Z"/></svg>