<svg xmlns="http://www.w3.org/2000/svg" xmlns:xlink="http://www.w3.org/1999/xlink" viewBox="0 0 105 105"><defs><style>.a{fill:url(#a);}.b{fill:#fff;}</style><linearGradient id="a" x1="15.38" y1="89.62" x2="89.62" y2="15.38" gradientUnits="userSpaceOnUse"><stop offset="0" stop-color="#edd18c"/><stop offset="1" stop-color="#f3df8d"/></linearGradient></defs><circle class="a" cx="52.5" cy="52.5" r="52.5"/><path class="b" d="M63.59,41.69C55.75,54.1,48.34,65.81,40.93,77.5c-2.2,3.5-4.48,7-6.6,10.49-.31-.1-.6-.22-.91-.35A50.45,50.45,0,0,1,20.6,80.05Q32.27,61.78,43.77,43.42a3,3,0,0,1,2.82-1.75C52,41.73,57.44,41.69,63.59,41.69Z"/><path class="b" d="M77.94,84.49a45,45,0,0,1-6.38,3.15,49,49,0,0,1-8.24,2.58c-.06-.13-.12-.27-.18-.44-3-7.73-6.13-15.43-9.2-23.13-.37-.9-.76-1.79-.21-2.71,2.91-4.86,5.83-9.68,9.14-15.21,5.19,12.22,10,23.58,14.82,34.9A3,3,0,0,1,77.94,84.49Z"/><path class="b" d="M97.32,34.66C90.94,37,81.59,39.18,69.42,40.3a2.43,2.43,0,0,0-1.77,1.07l-2,3.11a2.38,2.38,0,0,0-.22,2.11L71,60.85a143.36,143.36,0,0,0,30-5.66c0-.64,0-1.3,0-1.94A48.5,48.5,0,0,0,97.32,34.66Zm-89.64,0A48.5,48.5,0,0,0,4,53.25c0,.64,0,1.3,0,1.94a137.62,137.62,0,0,0,25.52,5.2L41.73,40.77C26.52,39.94,15.11,37.34,7.68,34.66Z"/></svg>