<svg xmlns="http://www.w3.org/2000/svg" xmlns:xlink="http://www.w3.org/1999/xlink" viewBox="0 0 105 105"><defs><style>.a{fill:url(#a);}.b{fill:#fff;}</style><linearGradient id="a" x1="15.38" y1="89.62" x2="89.62" y2="15.38" gradientUnits="userSpaceOnUse"><stop offset="0" stop-color="#edd18c"/><stop offset="1" stop-color="#f3df8d"/></linearGradient></defs><circle class="a" cx="52.5" cy="52.5" r="52.5"/><path class="b" d="M38.72,12.47A19.08,19.08,0,0,0,32.12,19a19.28,19.28,0,0,0-1.47,3c-.51,1.32-.12,1.91,1.29,2a15.76,15.76,0,0,1,11.2,4.95c4.61,4.89,6,10.69,3.81,17.06S40.05,56,33.39,57c-9.08,1.29-17.83-5.28-18.5-14.47C14.13,32.07,17.33,23,26.22,16.58A24.91,24.91,0,0,1,37.7,12.34a5.31,5.31,0,0,1,.69,0A2.38,2.38,0,0,1,38.72,12.47Z"/><path class="b" d="M29,85.86c.46-.1.7.16,1,.3a18.79,18.79,0,0,0,11.06,1.78c1.59-.23,1.91-.83,1.2-2.26a16.61,16.61,0,1,1,22.41,7.11c-4.94,2.6-10.14,4.28-15.78,4.08-8.31-.3-14.83-4-19.74-10.67A1.45,1.45,0,0,1,29,85.86Z"/><path class="b" d="M91.72,56.12c-.15-1.09-.26-2.18-.45-3.26a18.27,18.27,0,0,0-3.62-8.06c-1.08-1.4-1.69-1.37-2.66.07a16.16,16.16,0,0,1-13.77,7.58,16.62,16.62,0,1,1,.2-33.23,15.55,15.55,0,0,1,7.85,2.21C84.68,24.68,89.19,28.81,92,34.6c3.31,6.95,3.19,14,.24,21C92.11,55.79,92.07,56.05,91.72,56.12Z"/></svg>