<svg xmlns="http://www.w3.org/2000/svg" xmlns:xlink="http://www.w3.org/1999/xlink" viewBox="0 0 105 105"><defs><style>.a{fill:url(#a);}.b{fill:#fff;}.c{fill:none;stroke:#fff;stroke-miterlimit:10;stroke-width:2.1px;}.d{fill:url(#b);}.e{fill:url(#c);}.f{fill:url(#d);}</style><linearGradient id="a" x1="15.38" y1="89.62" x2="89.62" y2="15.38" gradientUnits="userSpaceOnUse"><stop offset="0" stop-color="#edd18c"/><stop offset="1" stop-color="#f3df8d"/></linearGradient><linearGradient id="b" x1="33.43" y1="60.57" x2="43.72" y2="60.57" xlink:href="#a"/><linearGradient id="c" x1="60.68" y1="60.57" x2="70.97" y2="60.57" xlink:href="#a"/><linearGradient id="d" x1="49.86" y1="66.93" x2="55.14" y2="66.93" xlink:href="#a"/></defs><circle class="a" cx="52.5" cy="52.5" r="52.5"/><path class="b" d="M77.64,68.4A14.1,14.1,0,0,1,63.78,82.73H41.08A14.08,14.08,0,0,1,27.24,68.4V52.78h50.4Z"/><path class="c" d="M96.78,36.25a47.24,47.24,0,0,0-7.84-13.68l0,0s0,0,0,0a.33.33,0,0,0-.11-.13l0,0a40.68,40.68,0,0,0-3.7-3.95h0a46.91,46.91,0,0,0-32.53-13A45.57,45.57,0,0,0,42.19,6.5a47.11,47.11,0,0,0-36.84,46c0,.4,0,.79,0,1.19v0A47.4,47.4,0,0,0,6.92,64.63v0A47.24,47.24,0,0,0,34.74,96.17,46.47,46.47,0,0,0,52.5,99.65h0c.27,0,.52,0,.78,0a46.06,46.06,0,0,0,16.94-3.46A47.19,47.19,0,0,0,96.78,36.25Z"/><path class="d" d="M33.43,61.14l10.29.23S40.16,57.92,33.43,61.14Z"/><path class="e" d="M71,61.14l-10.29.23S64.24,57.92,71,61.14Z"/><path class="f" d="M52.5,69.12h0c-.75-.76-1.5-1.51-2.26-2.26a1.15,1.15,0,0,1-.14-.17,1.24,1.24,0,0,1-.21-.52.45.45,0,0,1,0-.11v-.16a.45.45,0,0,1,0-.11,1.25,1.25,0,0,1,1.3-1,1.14,1.14,0,0,1,.8.37l.52.51h0l.39-.39a2,2,0,0,1,.21-.2,1.18,1.18,0,0,1,.73-.29,1.13,1.13,0,0,1,.32,0,1.24,1.24,0,0,1,.67.39,1.22,1.22,0,0,1,.29,1,1.26,1.26,0,0,1-.35.65L52.67,69Z"/><path class="b" d="M65.79,23.86c-5.44-1.82-9-5.92-7.87-9.16s6.38-4.37,11.82-2.55,9,5.94,7.88,9.18-6.39,4.37-11.83,2.53"/></svg>