<svg xmlns="http://www.w3.org/2000/svg" xmlns:xlink="http://www.w3.org/1999/xlink" viewBox="0 0 105 105"><defs><style>.a{fill:url(#a);}.b{fill:#fff;}.c{fill:none;stroke:#fff;stroke-miterlimit:10;stroke-width:1.58px;}.d{fill:url(#b);}.e{fill:url(#c);}.f{fill:url(#d);}</style><linearGradient id="a" x1="15.38" y1="89.62" x2="89.62" y2="15.38" gradientUnits="userSpaceOnUse"><stop offset="0" stop-color="#edd18c"/><stop offset="1" stop-color="#f3df8d"/></linearGradient><linearGradient id="b" x1="48.84" y1="91.54" x2="56.58" y2="91.54" xlink:href="#a"/><linearGradient id="c" x1="59.99" y1="77.23" x2="71.04" y2="77.23" xlink:href="#a"/><linearGradient id="d" x1="33.94" y1="77.24" x2="44.98" y2="77.24" xlink:href="#a"/></defs><circle class="a" cx="52.5" cy="52.5" r="52.5"/><path class="b" d="M52.18,99.16a22.12,22.12,0,0,0,12.45-3.78s0,0,0,0c.51-.33,1-.71,1.47-1.09a22.19,22.19,0,0,0,4-4.33,21.61,21.61,0,0,0,4-12.64c0-1.68,0-3.38,0-5.06v-.94c0-.89-.1-1.24-.61-1.39a3.41,3.41,0,0,0-.88-.08c-9,0-18-.07-27,0a2.12,2.12,0,0,1-2.12-1.28,25.12,25.12,0,0,1-1.63-4.6c-.34-1.05-.66-2.1-1-3.12a7,7,0,0,0-.38-.72c-.12-.21-.29-.42-.52-.38s-.4.28-.49.51a17.3,17.3,0,0,0-.65,2.69,38.49,38.49,0,0,1-1,4.85c-.1.35-.25.71-.37,1.07a1.54,1.54,0,0,1-1.66,1c-1.37,0-2.73,0-4.1,0a1.85,1.85,0,0,0-.73.12c-.38.15-.53.49-.53,1.07v.8a64.57,64.57,0,0,0,.23,8.57,21.25,21.25,0,0,0,7.12,13.36c.55.5,1.11,1,1.7,1.4A25,25,0,0,0,52.18,99.16Z"/><path class="c" d="M88.26,50.26a37.75,37.75,0,0,0-6.34-11v0s-.06-.08-.1-.1l0,0a33.49,33.49,0,0,0-3-3.19h0A38,38,0,0,0,52.5,25.3a36.36,36.36,0,0,0-8.33.93A38.06,38.06,0,0,0,14.39,63.39c0,.32,0,.65,0,1v0a38.31,38.31,0,0,0,1.25,8.82v0c0,.17.09.35.14.52A29.87,29.87,0,0,0,31.5,92.19a46.62,46.62,0,0,0,7.93,3.06,20.62,20.62,0,0,1-1.71-1.41,21.21,21.21,0,0,1-7.11-13.35,77.27,77.27,0,0,1-.23-9.38c0-.87.3-1.15,1.25-1.19,1.37,0,2.73,0,4.1,0a1.53,1.53,0,0,0,1.67-1c.11-.36.26-.7.36-1.06a39.73,39.73,0,0,0,1-4.86,16.48,16.48,0,0,1,.65-2.69c.09-.23.19-.47.47-.49s.42.17.53.38a3.64,3.64,0,0,1,.38.7c.33,1,.63,2.09,1,3.13a25,25,0,0,0,1.63,4.61,2.17,2.17,0,0,0,2.13,1.27c9,0,18,0,27,0,1.25,0,1.48.21,1.48,1.48,0,2,0,4,0,6a21.92,21.92,0,0,1-9.45,18.1,46.85,46.85,0,0,0,10-3.86A29,29,0,0,0,88.73,75.23a38,38,0,0,0-.47-25Z"/><path class="d" d="M56.58,90.34a4.33,4.33,0,0,1-3.91,4A2.74,2.74,0,0,1,51.55,94,4.37,4.37,0,0,1,50,93a4.06,4.06,0,0,1-1.18-3c.1-1.07.62-1.53,1.57-1.08a4.87,4.87,0,0,0,4.5,0,1.25,1.25,0,0,1,1.15-.07.35.35,0,0,1,.15.12.63.63,0,0,0,.1.12A2.06,2.06,0,0,1,56.58,90.34Z"/><path class="e" d="M70.78,75.9a2.42,2.42,0,0,1-2.92,1c-.45-.14-.9-.31-1.41-.49.51,1.45.38,2.24-.41,2.91a2,2,0,0,1-2.16.29.84.84,0,0,1-.2-.08,1,1,0,0,1-.28-.2,1.09,1.09,0,0,1-.33-.31,2.82,2.82,0,0,1-.26-2.37l-.06,0a3.81,3.81,0,0,0-1.41,1.2c-.27.32-.54.62-1,.4a1.09,1.09,0,0,1-.21-.14c-.37-.37-.11-.73.15-1.07a5.73,5.73,0,0,1,6.8-1.82l.76.32a1.32,1.32,0,0,0,1.87-.46c.26-.31.56-.61,1-.34a1.22,1.22,0,0,1,.17.15C71.17,75.23,71,75.57,70.78,75.9Z"/><path class="f" d="M44.77,78.17a.55.55,0,0,1-.63.13,1.15,1.15,0,0,1-.33-.24,1.31,1.31,0,0,1-.11-.12c-.15-.17-.31-.34-.48-.5L42.77,77l-.3-.21-.38-.22c.45,1.27.33,2.31-.82,3a2,2,0,0,1-2,0,1.65,1.65,0,0,1-.31-.2c-.76-.65-.87-1.42-.37-2.89,0,0-.06,0-.08,0-.56.18-1,.35-1.49.51a2.36,2.36,0,0,1-1.73-.16,2.21,2.21,0,0,1-.8-.55,1.44,1.44,0,0,1-.22-.27,1.73,1.73,0,0,1-.19-.31.62.62,0,0,1,.17-.85.56.56,0,0,1,.62-.08.78.78,0,0,1,.2.16,3.68,3.68,0,0,0,1,.8c.38.17.72,0,1.55-.32a5.93,5.93,0,0,1,5.11,0,5.26,5.26,0,0,1,1.52,1.16,6,6,0,0,1,.45.53l0,0C45,77.47,45.14,77.83,44.77,78.17Z"/><path class="c" d="M53.43,8a20.65,20.65,0,0,1,13.42,5,12.5,12.5,0,0,1,4.52,11.72,3.21,3.21,0,0,1-.07.43C70.46,28.09,70,27.87,67.86,27a38,38,0,0,0-31.63.47c-.85.38-1.24.27-1.6-.58a11,11,0,0,1,.85-10.3c2.26-3.89,5.85-6.1,10-7.47A24.56,24.56,0,0,1,53.43,8Z"/><path class="c" d="M32.75,6.1a2.83,2.83,0,0,1,2.73.19c.93.6,1.87,1.22,2.78,1.83s.92,1.05,0,1.73C36.88,11,36.61,11,35.1,10c-1.28-.86-2.59-1.7-3.9-2.56A1.39,1.39,0,0,1,30.73,7Z"/><path class="c" d="M73.61,7a2.83,2.83,0,0,0-2.73.19L68.09,9c-.91.61-.91,1.06,0,1.74,1.42,1.11,1.69,1.11,3.19.16,1.29-.86,2.6-1.7,3.9-2.56a1.31,1.31,0,0,0,.47-.43Z"/></svg>