<svg xmlns="http://www.w3.org/2000/svg" xmlns:xlink="http://www.w3.org/1999/xlink" viewBox="0 0 105 105"><defs><style>.a{fill:url(#a);}.b{fill:#fff;}.c{fill:none;stroke:#fff;stroke-miterlimit:10;stroke-width:1.58px;}.d{fill:url(#b);}.e{fill:url(#c);}.f{fill:url(#d);}.g{fill:url(#e);}.h{fill:url(#f);}</style><linearGradient id="a" x1="15.38" y1="89.62" x2="89.62" y2="15.38" gradientUnits="userSpaceOnUse"><stop offset="0" stop-color="#758427"/><stop offset="1" stop-color="#a4ac59"/></linearGradient><linearGradient id="b" x1="39.95" y1="76.32" x2="64.48" y2="76.32" xlink:href="#a"/><linearGradient id="c" x1="59.41" y1="59.69" x2="77.36" y2="59.69" xlink:href="#a"/><linearGradient id="d" x1="27.31" y1="59.7" x2="45.28" y2="59.7" xlink:href="#a"/><linearGradient id="e" x1="59.92" y1="50.05" x2="80.39" y2="50.05" xlink:href="#a"/><linearGradient id="f" x1="24.07" y1="50.12" x2="44.62" y2="50.12" xlink:href="#a"/></defs><circle class="a" cx="52.5" cy="52.5" r="52.5"/><path class="b" d="M88.29,74a13.61,13.61,0,0,0,4.43-7.48c.41-2.35-.74-3.37-3-2.64a9.13,9.13,0,0,0-3.06,1.84c-.52.46-1.1,1-1.84.52s-.5-1.31-.25-2c.15-.48.32-1,.48-1.42a29.93,29.93,0,0,0,1.51-10c-.17-7.42-2.24-14.19-7.3-19.85-1-1.07-.66-1.89.74-2.3s3-.86,4.49-1.22c1.21-.29,1-.69.31-1.42a43.91,43.91,0,0,0-10.57-7.59A38.79,38.79,0,0,0,65.4,17a2.49,2.49,0,0,0,0,.56c.19.74.77,1.53,0,2.24s-1.61.12-2.4-.08c-.34-.07-.65-.23-1-.32A30,30,0,0,0,50.83,18,44.24,44.24,0,0,0,41.61,20c-1.5.45-2.11-.19-1.74-1.66.09-.43.47-.81.05-1.33-.92.31-1.88.58-2.82.9a44.65,44.65,0,0,0-16.29,9.92c-1.36,1.3-1.36,1.34.38,1.86,1.11.34,2.23.61,3.34.9,1.86.5,2.13,1.24.86,2.72-4.89,5.58-6.84,12.21-7,19.48a31.45,31.45,0,0,0,2,11.46c.27.69.65,1.46-.19,2s-1.4-.1-2-.56A9.34,9.34,0,0,0,15.48,64c-1-.36-2-.69-2.86.06a2.58,2.58,0,0,0-.46,2.66,14.62,14.62,0,0,0,4.91,7.73c.54.46,1.19.83,1,1.69s-1,.73-1.67,1A34.24,34.24,0,0,0,22.74,84c14.5,11.5,30.49,13.75,47.71,7.36A40.79,40.79,0,0,0,88.24,78.27c.53-.69,1.05-1.19-.42-1.31-1.19-.09-1.44-1-.64-1.91C87.53,74.66,88,74.38,88.29,74Z"/><path class="c" d="M96.81,36.24a46.84,46.84,0,0,0-1.9-4.43,13.87,13.87,0,0,0-5.52-5.15A48.6,48.6,0,0,0,64.5,12.39a2.13,2.13,0,0,1-1.69-1.47c-.53-1.46-1.13-2.9-1.64-4.36a2.37,2.37,0,0,0-.23-.48A47.42,47.42,0,0,0,44.66,6a3,3,0,0,0-.35.67c-.5,1.42-1.09,2.8-1.59,4.22a2.13,2.13,0,0,1-1.8,1.51,48.86,48.86,0,0,0-24.58,14c-.34.36-.65.92-1.15.88-1.53-.09-2.2,1-3,2s-1.69,2.16-2.43,3.28a47,47,0,0,0-4.45,20c0,.4,0,.79,0,1.19v0A47.41,47.41,0,0,0,6.89,64.64v0A47.23,47.23,0,0,0,34.54,96.1l3.54,1.32A46.55,46.55,0,0,0,52.5,99.68h0c.27,0,.52,0,.79,0a45.87,45.87,0,0,0,16.94-3.47A47.22,47.22,0,0,0,96.81,36.24ZM18.09,76.18,22.74,84"/><path class="d" d="M62.92,73.58a3.06,3.06,0,0,0-.43.13,37.46,37.46,0,0,1-15.27.85,53.24,53.24,0,0,1-6-1.25c-.42-.11-.93-.24-1.19.28s.11.76.38,1a11.76,11.76,0,0,0,1.1,1,17.43,17.43,0,0,0,11.11,3.78,16.9,16.9,0,0,0,7.54-1.65,11.73,11.73,0,0,0,3.61-2.63c.36-.39.94-.78.62-1.39S63.43,73.52,62.92,73.58Z"/><path class="e" d="M76.54,57.06a23.09,23.09,0,0,0-6.35-1c-3.61.07-7.06.67-9.94,3.09-.41.35-1,.74-.8,1.33s1,.37,1.45.26A2.62,2.62,0,0,1,64,61.9c1.54,2.08,5.13,1.76,6-.62.72-2,2-2.29,3.67-2.46.94-.1,1.87-.28,2.8-.43.39-.06.88-.08.9-.6S76.91,57.17,76.54,57.06Z"/><path class="f" d="M40.53,62c1.07-1.34,2-1.65,3.27-1.21.67,0,1.2.29,1.43-.27s-.25-.81-.55-1.13c-.1-.11-.23-.2-.34-.3-4.38-3.69-11.8-3.5-16.45-2-.28.09-.59.25-.58.61s.37.54.72.6c1.33.21,2.66.46,4,.6a2.31,2.31,0,0,1,2.35,1.76A3.58,3.58,0,0,0,40.53,62Z"/><path class="g" d="M79,46.91c-3.62.71-7.25,1.42-10.86,2.18a48,48,0,0,0-7,1.69c-.71.26-1.43.71-1.21,1.64s1,.85,1.77.86a3.66,3.66,0,0,0,.69-.08c5.68-1.53,11.37-3.07,17-4.87.46-.14,1.11-.29,1-.93S79.54,46.81,79,46.91Z"/><path class="h" d="M42.84,53.38c.75-.09,1.52-.15,1.74-1s-.46-1.28-1.1-1.56a10.78,10.78,0,0,0-2.13-.68q-6.81-1.44-13.62-2.83c-.92-.19-1.86-.35-2.79-.48a.7.7,0,0,0-.84.47c-.12.4.16.67.5.81.56.22,1.11.44,1.69.61q6,1.71,11.93,3.4C39.76,52.58,41.3,53,42.84,53.38Z"/></svg>