<svg xmlns="http://www.w3.org/2000/svg" xmlns:xlink="http://www.w3.org/1999/xlink" viewBox="0 0 438 438"><defs><style>.a{fill:url(#a);}.b{fill:#fff;}</style><linearGradient id="a" x1="64.14" y1="373.86" x2="373.86" y2="64.14" gradientUnits="userSpaceOnUse"><stop offset="0" stop-color="#cfc0a6"/><stop offset="1" stop-color="#e0d7c6"/></linearGradient></defs><circle class="a" cx="219" cy="219" r="219"/><path class="b" d="M265.27,173.91c-32.71,51.76-63.61,100.6-94.51,149.36-9.19,14.6-18.72,29-27.56,43.78-1.29-.42-2.49-.94-3.78-1.45a211,211,0,0,1-53.48-31.68q48.68-76.23,96.66-152.8c2.84-4.47,5.75-7.39,11.76-7.3C216.94,174.08,239.6,173.91,265.27,173.91Z"/><path class="b" d="M325.1,352.46a191.68,191.68,0,0,1-26.61,13.14,203.21,203.21,0,0,1-34.34,10.73c-.25-.52-.51-1.12-.77-1.81C250.76,342.25,237.8,310.14,225,278c-1.55-3.77-3.18-7.46-.86-11.33,12.1-20.26,24.29-40.34,38.12-63.44,21.63,51,41.54,98.38,61.8,145.6A11.48,11.48,0,0,1,325.1,352.46Z"/><path class="b" d="M406,144.57c-26.63,9.63-65.65,18.86-116.4,23.56a10,10,0,0,0-7.36,4.45L274,185.53a10,10,0,0,0-.89,8.82l23.07,59.49c45.24-4.12,88.31-11.89,125.05-23.63.08-2.67.17-5.42.17-8.1A202.69,202.69,0,0,0,406,144.57Zm-374,0a202.69,202.69,0,0,0-15.38,77.54c0,2.68.09,5.43.17,8.1,31.64,10.12,68.07,17.24,106.44,21.69l50.83-81.83C110.62,166.59,63,155.74,32,144.57Z"/></svg>