<svg xmlns="http://www.w3.org/2000/svg" xmlns:xlink="http://www.w3.org/1999/xlink" viewBox="0 0 438 438"><defs><style>.a{fill:url(#a);}.b{fill:#fff;}</style><linearGradient id="a" x1="64.14" y1="373.86" x2="373.86" y2="64.14" gradientUnits="userSpaceOnUse"><stop offset="0" stop-color="#cfc0a6"/><stop offset="1" stop-color="#e0d7c6"/></linearGradient></defs><circle class="a" cx="219" cy="219" r="219"/><path class="b" d="M411.92,194.53c-1.26-6.37-3.23-12.51-5-19.27-8.18,2.2-15.42,4.32-23.21,6.37C395.87,221,394.21,259.13,377,296.1c-17.23,37.3-45.55,64.76-84.34,82.22-63.73,28.95-134.14,14.64-175-16.13H269.27l.34-1.25c-23.3-13.69-48.79-20.07-77.44-20.38,2.44-1.73,3.54-2.52,4.72-3.47,23.05-16.6,41.7-36.5,53.19-62,4.09-8.89,6.53-18.1,6-27.93-.79-12.67-8.19-21-21.17-23.76-1-.24-2-.63-3.38-1a13.77,13.77,0,0,1,1.81-1.81Q271,187.3,308.85,154.33a8.53,8.53,0,0,1,5.51-1.73,149.36,149.36,0,0,0,77-18.65c1.18-.63,2.05-1.34,3.07-2-.08-.31-.24-.63-.31-.94H364c9.13-5.43,15.5-12.27,18.57-21.24a35.44,35.44,0,0,0,1.81-7.48,4.19,4.19,0,0,0-.39-3l-.08-.08c-.16-.08-.16-.15-.24-.23-.94-.63-2.83-.87-6-.32-.94.16-1.89.32-2.83.4-18.1,2.91-36.59,3.69-54.52.07-9.37-1.88-10.7-.55-9.44,4.65a43.48,43.48,0,0,0,14,22.42c2.67,2.28,3.54,2.52,7.32,4.88-5.75,0-10.47.23-15-.08a20.57,20.57,0,0,0-12.35,3.3c-22.11,13-44.38,25.73-66.49,38.56-1.18.62-2.51,1.25-4.09,2.2q-19.71-37.29-38.94-74a8.1,8.1,0,0,1,3.93,1c29.35,13.69,63.65-2.37,70.42-32.73.78-3.15.16-5.12-2.83-6.85-6.46-3.85-12.59-7.95-19.28-12.27,3.7-4.17,7-8,10.78-12.36-10.54-4.72-20.22-9-30.21-13.29a34,34,0,0,0-6.61-2.2.29.29,0,0,0-.24-.08h-.71l-6.49.11c-2.44,0-4.89.16-7.33.34l-7.42.54a25.2,25.2,0,0,0-10.62,3.1A44,44,0,0,0,178.56,35c-4.17,4.57-8.1,9.52-12.43,13.93a17.4,17.4,0,0,1-7.08,4.56C78.72,78.09,25.14,147,22.46,224.66c2.84,102.6,84.19,185.45,186.15,190.8q5.2.23,10.39.23c1.26,0,2.52,0,3.78-.08,3.06-.07,6.13-.15,9.12-.39,2.44-.08,4.8-.31,7.24-.55,97.09-9.83,173.33-90.4,176.4-189.38A174.19,174.19,0,0,0,411.92,194.53ZM147,168.73c27,17.93,53.42,35.48,80.88,53.65-16.92,1-31.08,6.61-44.37,14.24S158.42,253.85,147,265.1Z"/></svg>