<svg xmlns="http://www.w3.org/2000/svg" xmlns:xlink="http://www.w3.org/1999/xlink" viewBox="0 0 438 438"><defs><style>.a{fill:url(#a);}.b{fill:#fff;}.c{fill:none;stroke:#fff;stroke-miterlimit:10;stroke-width:8.76px;}.d{fill:url(#b);}.e{fill:url(#c);}.f{fill:url(#d);}</style><linearGradient id="a" x1="64.14" y1="373.86" x2="373.86" y2="64.14" gradientUnits="userSpaceOnUse"><stop offset="0" stop-color="#cfc0a6"/><stop offset="1" stop-color="#e0d7c6"/></linearGradient><linearGradient id="b" x1="139.47" y1="252.66" x2="182.36" y2="252.66" xlink:href="#a"/><linearGradient id="c" x1="253.14" y1="252.66" x2="296.03" y2="252.66" xlink:href="#a"/><linearGradient id="d" x1="207.97" y1="279.19" x2="230.02" y2="279.19" xlink:href="#a"/></defs><circle class="a" cx="219" cy="219" r="219"/><path class="b" d="M323.87,285.33c0,33.05-25.9,59.78-57.81,59.78H171.34c-31.9,0-57.71-26.73-57.71-59.78V220.18H323.87Z"/><path class="c" d="M403.7,151.22A197.08,197.08,0,0,0,371,94.16l-.08-.08c-.08-.08-.08-.16-.16-.16a1.63,1.63,0,0,0-.48-.56l-.08-.08a167,167,0,0,0-15.43-16.47l-.08-.08A195.85,195.85,0,0,0,219,22.31a191,191,0,0,0-43,4.79A196.6,196.6,0,0,0,22.31,219c0,1.68,0,3.28.08,5V224a198.65,198.65,0,0,0,6.47,45.55v.08A197.1,197.1,0,0,0,144.91,401.15,193.75,193.75,0,0,0,219,415.69h.08c1.12,0,2.16,0,3.28-.08A192.28,192.28,0,0,0,293,401.15,196.77,196.77,0,0,0,403.7,151.22Z"/><path class="d" d="M139.47,255.06l42.89.94S167.52,241.63,139.47,255.06Z"/><path class="e" d="M296,255.06l-42.89.94S268,241.63,296,255.06Z"/><path class="f" d="M219,288.34h0l-.06-.07-9.41-9.41a4.86,4.86,0,0,1-.59-.7A5,5,0,0,1,208,276c0-.15,0-.3-.06-.45v-.63c0-.16,0-.31.06-.47a5.17,5.17,0,0,1,5.43-4.36,4.91,4.91,0,0,1,1.56.35,5.11,5.11,0,0,1,1.78,1.19l2.15,2.15s.05,0,.09,0l1.62-1.63c.29-.28.56-.58.87-.84a5.15,5.15,0,0,1,3.08-1.23,5.15,5.15,0,0,1,4.11,1.74,5.13,5.13,0,0,1-.25,7.09l-8.77,8.77Z"/><path class="b" d="M274.45,99.52c-22.7-7.6-37.4-24.7-32.85-38.21s26.62-18.22,49.32-10.63S328.32,75.46,323.77,89s-26.62,18.22-49.32,10.55"/></svg>