<svg xmlns="http://www.w3.org/2000/svg" xmlns:xlink="http://www.w3.org/1999/xlink" viewBox="0 0 438 438"><defs><style>.a{fill:url(#a);}.b{fill:#fff;}.c{fill:none;stroke:#fff;stroke-miterlimit:10;stroke-width:6.57px;}.d{fill:url(#b);}.e{fill:url(#c);}.f{fill:url(#d);}</style><linearGradient id="a" x1="64.14" y1="373.86" x2="373.86" y2="64.14" gradientUnits="userSpaceOnUse"><stop offset="0" stop-color="#cfc0a6"/><stop offset="1" stop-color="#e0d7c6"/></linearGradient><linearGradient id="b" x1="203.6" y1="381.85" x2="235.93" y2="381.85" xlink:href="#a"/><linearGradient id="c" x1="250.14" y1="322.16" x2="296.23" y2="322.16" xlink:href="#a"/><linearGradient id="d" x1="141.48" y1="322.18" x2="187.52" y2="322.18" xlink:href="#a"/></defs><circle class="a" cx="219" cy="219" r="219"/><path class="b" d="M217.55,413.66a92.52,92.52,0,0,0,51.95-15.77c.09-.09.17-.09.17-.18,2.11-1.4,4.12-3,6.13-4.55a92.68,92.68,0,0,0,16.47-18.05c11.22-15.77,16.38-33.55,16.56-52.73.18-7,.09-14.11,0-21.11v-3.95c0-3.68-.44-5.16-2.54-5.78a13.81,13.81,0,0,0-3.68-.35C265,291.1,227.45,290.93,190,291c-4.3,0-7-1.67-8.85-5.35-3.15-6-4.91-12.61-6.83-19.18-1.41-4.38-2.72-8.76-4-13.05a31.19,31.19,0,0,0-1.58-3c-.53-.88-1.23-1.75-2.19-1.58-1.23.09-1.66,1.14-2,2.1a69.26,69.26,0,0,0-2.72,11.22c-1.23,6.65-2.19,13.57-4.29,20.23-.44,1.49-1.05,3-1.58,4.47-1.23,3-3.33,4.47-6.92,4.29-5.69-.17-11.39-.09-17.08,0a7.43,7.43,0,0,0-3.07.53c-1.57.61-2.19,2-2.19,4.47v3.32c0,11.92-.61,23.83,1,35.74,3,22.26,13,40.74,29.69,55.72a89.84,89.84,0,0,0,7.1,5.87S188.58,413.66,217.55,413.66Z"/><path class="c" d="M368.06,209.67a157.48,157.48,0,0,0-26.43-46v-.08a.25.25,0,0,1-.08-.16c-.16-.16-.24-.32-.39-.4l-.08-.08a140.42,140.42,0,0,0-12.51-13.29v-.08a158.59,158.59,0,0,0-109.68-44,151.82,151.82,0,0,0-34.74,3.88,158.85,158.85,0,0,0-124.25,155c0,1.34,0,2.69.08,4v.08a161.82,161.82,0,0,0,5.22,36.8v.08l.6,2.17c9.61,33.85,34,61.4,65.51,77a194.39,194.39,0,0,0,33.05,12.73,82.84,82.84,0,0,1-7.12-5.86c-16.7-15-26.67-33.47-29.68-55.71-1.74-13-.79-26-1-39.09,0-3.65,1.27-4.83,5.23-5,5.7-.08,11.39-.16,17.09,0a6.37,6.37,0,0,0,7-4.27c.47-1.51,1.1-2.93,1.5-4.44,2.14-6.64,3.09-13.61,4.35-20.25a68.63,68.63,0,0,1,2.69-11.24c.4-1,.79-2,2-2.06,1-.16,1.74.71,2.22,1.58a21.76,21.76,0,0,1,1.58,2.93c1.34,4.35,2.61,8.71,4,13.06,1.89,6.57,3.64,13.14,6.8,19.23,1.9,3.64,4.59,5.3,8.86,5.3,37.52-.08,75.11.08,112.7.16,5.22,0,6.17.87,6.17,6.17.08,8.31.16,16.7,0,25.09-.16,19.15-5.3,37-16.54,52.7a89.59,89.59,0,0,1-22.87,22.8,195.88,195.88,0,0,0,41.53-16.11c27.63-14.52,49.38-38.84,59.1-68.49a158.21,158.21,0,0,0-1.95-104.15Z"/><path class="d" d="M235.93,376.85c-.07,8.07-8.66,16.73-16.34,16.53a11.57,11.57,0,0,1-4.65-1.1,17.61,17.61,0,0,1-6.39-4.39c-3.23-3.36-5.24-7.94-4.91-12.33s2.58-6.4,6.52-4.52c6.46,3,12.27,3.29,18.79.19,2-.9,3.62-1,4.78-.32a1.66,1.66,0,0,1,.65.51,3.35,3.35,0,0,0,.39.52A8.36,8.36,0,0,1,235.93,376.85Z"/><path class="e" d="M295.15,316.59c-3,4.26-7.3,5.81-12.2,4.2-1.88-.58-3.75-1.29-5.88-2.07,2.13,6.07,1.61,9.37-1.68,12.14a8.52,8.52,0,0,1-9,1.23,4.13,4.13,0,0,1-.84-.32,5.49,5.49,0,0,1-1.16-.84,5.25,5.25,0,0,1-1.36-1.29c-1.68-2.13-2-5.17-1.1-9.88-.06.06-.19.06-.26.13a15.52,15.52,0,0,0-5.87,5c-1.1,1.35-2.26,2.58-3.94,1.68a6.07,6.07,0,0,1-.91-.58c-1.55-1.55-.45-3,.65-4.46,6.91-8.78,17.76-11.75,28.35-7.62l3.16,1.36c3.69,1.48,5.37,1.09,7.82-1.94,1.1-1.29,2.32-2.52,4-1.42a6.5,6.5,0,0,1,.71.64C296.77,313.81,296.12,315.24,295.15,316.59Z"/><path class="f" d="M186.65,326.09a2.28,2.28,0,0,1-2.65.51,4.22,4.22,0,0,1-1.35-1c-.13-.19-.33-.32-.45-.51-.65-.71-1.3-1.42-2-2.07s-1.22-1.23-1.87-1.87a11.07,11.07,0,0,0-1.29-.91c-.45-.26-1-.51-1.55-.9,1.87,5.29,1.35,9.62-3.42,12.46a8.55,8.55,0,0,1-8.53-.19,9.53,9.53,0,0,1-1.29-.84c-3.17-2.71-3.62-5.94-1.55-12.08-.13.07-.26.07-.32.13-2.33.78-4.2,1.49-6.2,2.13a10,10,0,0,1-7.24-.64,9.25,9.25,0,0,1-3.36-2.33,7.43,7.43,0,0,1-.9-1.1,6.75,6.75,0,0,1-.77-1.29,2.56,2.56,0,0,1,.71-3.55,2.29,2.29,0,0,1,2.58-.32,2.84,2.84,0,0,1,.84.64c1.94,1.88,3,2.91,4.13,3.36,1.55.71,3,.13,6.46-1.35,7.49-3.23,15-3,21.31.12a21.5,21.5,0,0,1,6.33,4.85,20.1,20.1,0,0,1,1.87,2.19l.2.2C187.43,323.18,188.2,324.66,186.65,326.09Z"/><path class="c" d="M222.78,33.48c18.7.37,39,6,56,20.86,14.75,12.92,21.58,29.12,18.85,48.89a13.65,13.65,0,0,1-.29,1.81c-3.51,12.12-5.6,11.22-14.37,7.54q-66.31-27.81-131.91,2c-3.56,1.61-5.18,1.16-6.69-2.4C138,97.2,140,82.78,147.9,69.15,157.33,52.92,172.3,43.7,189.68,38,199.29,34.85,209.24,33.5,222.78,33.48Z"/><path class="c" d="M136.5,25.43a11.85,11.85,0,0,1,11.39.81c3.89,2.52,7.79,5.07,11.61,7.62s3.82,4.39.16,7.24c-5.94,4.63-7.07,4.63-13.34.65-5.37-3.58-10.82-7.08-16.27-10.66a6,6,0,0,1-2-1.79Z"/><path class="c" d="M307,29.14a11.85,11.85,0,0,0-11.39.81c-3.9,2.52-7.8,5.07-11.62,7.61s-3.82,4.4-.16,7.24c5.94,4.64,7.08,4.64,13.34.65,5.37-3.57,10.82-7.07,16.27-10.65A5.82,5.82,0,0,0,315.34,33Z"/></svg>