<svg xmlns="http://www.w3.org/2000/svg" xmlns:xlink="http://www.w3.org/1999/xlink" viewBox="0 0 438 438"><defs><style>.a{fill:url(#a);}.b{fill:#fff;}</style><linearGradient id="a" x1="64.14" y1="373.86" x2="373.86" y2="64.14" gradientUnits="userSpaceOnUse"><stop offset="0" stop-color="#cfc0a6"/><stop offset="1" stop-color="#e0d7c6"/></linearGradient></defs><circle class="a" cx="219" cy="219" r="219"/><path class="b" d="M27.28,156.66c12-6.78,22.3-16,33-24.6,5.74-4.62,11.29-9.47,17-14.14,12-9.85,25.74-14.08,41.13-12.29a22.09,22.09,0,0,1,16.18,9.26c18.82,25.37,38.17,50.37,57.44,75.41,1.94,2.52,2.2,4.11,0,6.65-4.56,5.2-4.39,5.34-10.89,3.22-7.12-2.32-14.24-4.67-21.38-6.92-2.88-.9-5.69-.85-8,1.45-3.92,3.84-2.35,10,3.26,11.92,8.14,2.81,16.35,5.43,24.57,8,2.54.8,4,1.81,4,4.88s-1.48,4-4,4.88c-29.72,9.94-59.46,19.81-89.07,30.07a21.87,21.87,0,0,1-17.68-1.15C58.58,246.36,49.37,234.93,45.17,220c-4.92-17.54-8.67-35.41-14.32-52.75a52.55,52.55,0,0,0-3.57-9.05Z"/><path class="b" d="M321.13,381.66c-13.86-.09-27.67.93-41.47,2.14-15.39,1.34-29.55-1.71-42-11.3a34.43,34.43,0,0,1-6.61-6.6,18,18,0,0,1-3.87-11.38c.17-32,.09-63.93.1-95.9,0-2.07-.38-4.26,2.36-5.29,2.41-.9,4.06-.79,5.7,1.56,4.77,6.87,9.77,13.58,14.71,20.33,1.33,1.81,2.67,3.7,5.1,4.13,3,.55,5.77,0,7.58-2.75a7,7,0,0,0-.19-8.41c-4.92-6.91-9.79-13.88-15-20.58-2.24-2.88-2.57-5.14.09-7.71A5.28,5.28,0,0,0,248.9,238c1.23-3.3,3.35-3.16,6.26-2.17,24.81,8.44,49.66,16.75,74.5,25.11,5.33,1.79,10.58,3.85,16,5.29a19,19,0,0,1,11.88,9.61c8.29,14.62,8.87,30,3,45.48-7.29,19.25-15.92,38-21.25,58-.55,2.09-1.76,2.38-3.56,2.36C330.87,381.62,326,381.66,321.13,381.66Z"/><path class="b" d="M213.27,307.73c0,15.23-.19,30.47.1,45.7a19.63,19.63,0,0,1-5.43,14.27c-11.35,12.31-25.61,17.9-42.24,17.08-20.56-1-41.08-3.12-61.7-2.31-1.56.06-2.89.15-3.42-1.91-5-19.67-13.27-38.18-20.82-56.92-5-12.47-5.29-25-1.65-37.75a38.75,38.75,0,0,1,3.57-8.23,18.38,18.38,0,0,1,10.88-9c30-9.91,59.87-20.13,89.79-30.24,5.26-1.78,5.14-1.69,8.38,2.79,1.48,2,1.2,3.45-.18,5.29-4.27,5.69-8.41,11.48-12.59,17.25-1,1.41-2.08,2.81-3,4.29-2.43,3.8-1.87,8.21,1.27,10.37s7.65,1.35,10.25-2.14c5.08-6.8,10.35-13.5,14.92-20.64,2.86-4.47,5.86-2,9-1.44s2.87,2.93,2.87,5.2Q213.27,283.57,213.27,307.73Z"/><path class="b" d="M211.69,168.47c0,4.37,0,8.74,0,13.11,0,2-.27,3.67-2.59,4.36s-3.16-.81-4.22-2.21c-19.1-25-37.75-50.39-57.53-74.84-7.77-9.6-7.41-18.78-3.69-28.84A54.68,54.68,0,0,1,167.05,51.7C182.92,42,198.76,32.23,213.64,21c5.14-3.87,5.05-3.89,10.16,0C239.22,32.79,256,42.45,272.22,53,285.92,62,294,74.76,296.29,91a18.59,18.59,0,0,1-3.51,14.1q-28.68,39.13-57,78.55c-1.8,2.5-3.26,3.75-6.69,2.6s-3.41-3.37-3.4-6.07q.06-12.18,0-24.35c0-5.28-2.62-8.12-7.18-8.09s-6.75,2.7-6.82,8c-.06,4.24,0,8.49,0,12.74Z"/><path class="b" d="M280.31,192.77a14.83,14.83,0,0,0-4.89,1.12c-7.71,2.5-15.48,4.84-23.11,7.58-3.52,1.27-4.2-1.35-5.79-3.11s-1.42-3.3,0-5.23q29.87-41,59.6-82.13c3.86-5.34,9.71-6.43,15.54-6.87A53.67,53.67,0,0,1,361.54,117c13.86,11.64,27.64,23.37,42.29,34,2.31,1.67,5.89,2.44,6.72,5s-1.66,5.29-2.54,8c-5.8,17.69-9.89,35.83-14.65,53.8-3.94,14.84-12.85,26-26.27,33.51a19.86,19.86,0,0,1-17.19,1.56c-30.3-10.49-60.75-20.57-91.15-30.79-.82-.28-1.64-.6-2.47-.86-1.73-.53-2.13-1.82-2.26-3.45-.15-2,1.28-2.23,2.55-2.65,8.3-2.72,16.62-5.38,24.92-8.11,4.58-1.51,7-4.81,6.25-8.48S284.24,192.73,280.31,192.77Z"/><path class="b" d="M239.62,219.66a20.85,20.85,0,0,1-21.07,21.18,21.23,21.23,0,0,1-21.08-21c-.17-11.15,9.82-21,21.51-21.18C229.91,198.49,239.61,208.35,239.62,219.66Z"/></svg>