<svg xmlns="http://www.w3.org/2000/svg" xmlns:xlink="http://www.w3.org/1999/xlink" viewBox="0 0 438 438"><defs><style>.a{fill:url(#a);}.b{fill:#fff;}</style><linearGradient id="a" x1="64.14" y1="373.86" x2="373.86" y2="64.14" gradientUnits="userSpaceOnUse"><stop offset="0" stop-color="#cfc0a6"/><stop offset="1" stop-color="#e0d7c6"/></linearGradient></defs><circle class="a" cx="219" cy="219" r="219"/><path class="b" d="M152.77,43.27A78.58,78.58,0,0,0,119.1,82.79c-2.13,5.52-.49,8,5.37,8.23,18.26.79,34.22,7.32,46.74,20.63,19.22,20.43,25.06,44.61,15.86,71.18S158.32,225,130.54,228.9c-37.9,5.36-74.39-22-77.18-60.38C50.18,125,63.54,87,100.6,60.39c14.26-10.25,30.63-15.34,47.92-17.68a22.65,22.65,0,0,1,2.86-.1C151.61,42.61,151.84,42.82,152.77,43.27Z"/><path class="b" d="M112.3,349.38c1.9-.38,2.93.69,4.1,1.25,14.66,7.08,30,9.77,46.18,7.43,6.6-1,8-3.46,5-9.42-21.06-42.29,2.77-90.84,49.06-99.94,37.13-7.29,74.32,18.6,80.75,56.2a69.06,69.06,0,0,1-36.32,73.39c-20.63,10.87-42.33,17.88-65.84,17-34.65-1.25-61.84-16.85-82.36-44.51A6.67,6.67,0,0,1,112.3,349.38Z"/><path class="b" d="M373.85,225.35c-.62-4.56-1.08-9.11-1.87-13.59a76.2,76.2,0,0,0-15.12-33.65c-4.48-5.81-7.05-5.71-11.08.3-13.71,20.42-33,31.22-57.45,31.64-38.44.65-69.73-30.68-69.78-69.12A69.15,69.15,0,0,1,289.18,71.4a65.3,65.3,0,0,1,32.73,9.22c22.57,13.55,41.4,30.8,52.89,54.94,13.79,29,13.33,58.25,1,87.59C375.46,224,375.3,225,373.85,225.35Z"/></svg>