<svg xmlns="http://www.w3.org/2000/svg" xmlns:xlink="http://www.w3.org/1999/xlink" viewBox="0 0 438 438"><defs><style>.a{fill:url(#a);}.b{fill:#fff;}</style><linearGradient id="a" x1="64.14" y1="373.86" x2="373.86" y2="64.14" gradientUnits="userSpaceOnUse"><stop offset="0" stop-color="#edd18c"/><stop offset="1" stop-color="#f3df8d"/></linearGradient></defs><circle class="a" cx="219" cy="219" r="219"/><path class="b" d="M112.18,62.39c2.28,1,3.11,2,2.43,4.78a71.25,71.25,0,0,0,.53,31.72c6.83,29,32.79,51.68,62.69,53.66,6,.45,12,.22,17.91,1.67,43.18,9.94,59.72,62.15,30,95.16-6.6,7.29-12.67,14.8-16.69,23.91-6.76,15.4-6,31.72-5.85,47.88a2.53,2.53,0,0,0,1.67,2.66c1.52.61,2.43-.46,3.42-1.37,15.33-15.63,31.34-30.66,46-46.82,23.6-26.26,30.5-57.15,21.55-91.22-10.78-40.6-48.42-70.35-91.07-70.43a14.5,14.5,0,0,1-7.89-2.12,12.65,12.65,0,0,1-5.24-14c1.6-5.39,6.07-8.73,12.07-8.73H279c26.79,0,53.43,0,80.29-.07-2.2-2.59-4.47-5-6.83-7.44l-6.52-1.14c-38.56-7.06-77.19-14-115.81-21.17-7.44-1.37-15-2.2-21.33-7.44-7.36-6.15-16.54-8.5-26.1-8.5H132.14l-.75-1.54c-17.15,8.75-32,21.13-45,35a238.15,238.15,0,0,0-33.43,46l1,.58A236.56,236.56,0,0,1,88,78.38a191.82,191.82,0,0,1,19.84-17.74C109.29,61.23,110.72,61.82,112.18,62.39Z"/><path class="b" d="M424.43,213.49c-20.21,0-37,14.57-41.07,34.37-15.95,77.75-84.88,136.38-167.28,136.38a168.69,168.69,0,0,1-68.68-14.42c-2.51-1.14-5-2.28-7.52-3.57.08-23.68.08-44.77.08-54.26.07-11.23-.3-22.46,1.74-33.62a134.94,134.94,0,0,1,38.86-73.61c8.8-8.81,17.53-17.61,26.26-26.49,3.26-3.26,3.11-4.55-.84-6.75-15-8.27-30.12-8.35-45.15,0-8.65,4.93-14.8,12.67-20.87,20.26-24.74,30.74-37.72,66-38.71,105.34-.45,20-.07,40.14-.07,60.33v19.79a19,19,0,0,0,9.39,16.31,203.68,203.68,0,0,0,21.5,11c2.58,1.14,5.16,2.2,7.81,3.18a206.15,206.15,0,0,0,76.2,14.42c115,0,208.7-93.64,208.7-208.69Z"/><path class="b" d="M215.63,242.14a45.22,45.22,0,0,0,6.6-54.23c-2.23-3.85-3.47-4.11-6.5-1-10.77,10.89-21.92,21.45-32.15,32.83-19.86,22.11-30.42,43.72-31.12,73.57-.26,11.32,0,17.36,0,28.68,0,0-.08,9.81-.12,9.81,0,13.22,0,16.62,0,29.84,0,1.49-.36,3.31,1.54,4,1.51.57,2.49-.61,3.41-1.54q15.48-15.61,30.94-31.23a8.63,8.63,0,0,0,2.66-6.54c-.08-9.44,0-18.88-.06-28.32a58.79,58.79,0,0,1,1-12.63C194.49,266.82,202.65,255.62,215.63,242.14Z"/></svg>