<svg xmlns="http://www.w3.org/2000/svg" xmlns:xlink="http://www.w3.org/1999/xlink" viewBox="0 0 438 438"><defs><style>.a{fill:url(#a);}.b{fill:#fff;}</style><linearGradient id="a" x1="64.14" y1="373.86" x2="373.86" y2="64.14" gradientUnits="userSpaceOnUse"><stop offset="0" stop-color="#edd18c"/><stop offset="1" stop-color="#f3df8d"/></linearGradient></defs><circle class="a" cx="219" cy="219" r="219"/><path class="b" d="M157.85,151.55c-13.27-.34-29.73.37-46.19-.39-22.82-1.06-42.39-19.62-44.95-42.23-2.87-25.39,14.77-49.24,39.86-52.69,6.87-1,10-3.64,13.27-9.35C129.18,30.6,144,22.31,162.68,23c19.47.71,33.74,10.6,42.15,28.31,1.44,3,3.22,4.07,6.36,4.32,19.33,1.59,33.16,11.52,40.7,29.13s4.74,34.36-7.29,49.2c-10.5,12.95-24.77,17.73-41,17.63C189.38,151.49,175.21,151.55,157.85,151.55Z"/><path class="b" d="M358.74,202.88a126.53,126.53,0,0,1-42.58,64.2c-4.22,3.49-8.45,7-12.67,10.4a6.44,6.44,0,0,0-2.77,5.53c.9,23.89-5.77,46.23-14,68.25a85.36,85.36,0,0,0-4.07,13.41c-1.3,7.32,1.14,12.92,6.91,17.15,6,4.47,12.92,6.91,19.83,9.67,1.95.81,4,1.54,6,2.27A201,201,0,0,1,225,415.05a203.27,203.27,0,0,1-57.94-8.37c0-.24-.08-.48-.08-.73a9.51,9.51,0,0,1,5.12-9.67c3.17-1.78,6.74-2.43,10.32-3.17a63.5,63.5,0,0,0,29.9-14.7c8.21-7.24,16.74-14.14,23.81-22.59,1.46-1.79,3.74-3.5,2.44-6.26-1.46-2.76-4.15-2.36-6.75-2.2-3.33.17-6.66.17-10,.25-24.78.32-49.49,1-74.27.73-21.21-.16-37.63-9.83-48.84-27.95-.81-1.3-2.36-2.77-1.46-4.31s2.92-.81,4.47-.81c5.77-.08,11.45-.08,17.22-.08,6.51,0,13.09-.57,19,3.25,2.36,1.46,5.36,1.7,8.21,1.62,27.38-.49,54.85-.89,82.23-1.3,9.59-.16,19.26-.32,28.85-.24a7.9,7.9,0,0,0,7.48-4.23c17.39-29.17,5.11-67.61-26.09-81.18-15.85-6.9-31.77-13.41-47.62-20.23a85.17,85.17,0,0,1-40.55-35.76c-2.35-3.9-2-4.46,2.44-4.46,8.45-.09,16.9-.09,25.27,0,1.79,0,3.58,0,4.88,1.38,8.77,9,20.07,13.49,31.37,18.12q17.79,7.43,35.42,15.11c16.91,7.23,29.83,19.1,39.25,34.78,3.66,6,5.37,6.34,10.81,1.79A95.75,95.75,0,0,0,329.33,202c1.22-3.49,2.92-4.88,6.66-4.71,6.26.24,12.51.08,18.85.08C360.12,197.36,360.29,197.6,358.74,202.88Z"/><path class="b" d="M108.29,293.83c-14.74,0-26.64.07-38.54,0-23.51-.16-41.47-17-43.17-40.47-1.49-20.52,15.53-41,36.12-43.3a7.22,7.22,0,0,0,6.17-4.15c8.12-14.34,20.63-22.16,37-22.13s29.12,7.88,37.2,22.47a6.5,6.5,0,0,0,5.56,3.77c20.11,2.26,36.15,20.24,36.34,40.54.21,21.58-14.85,39.85-35.44,42.53C134.89,295,120.14,293.29,108.29,293.83Z"/><path class="b" d="M334.72,181.42c-12,0-24.06.08-36.1,0-21.83-.18-39.44-17.19-40.22-40.19-.74-22,15.57-38.72,35.55-41.27a5.58,5.58,0,0,0,4.63-3.15c8.06-14.18,20.1-21.93,36.59-21.78,16.12.14,28,7.71,35.83,21.69a5.78,5.78,0,0,0,5,3.27c19.72,2.37,35,19.58,35.53,39.89.53,19.2-14.1,37.2-33.12,40.79a43.44,43.44,0,0,1-8.36.79C358.25,181.4,346.49,181.42,334.72,181.42Z"/></svg>