<svg xmlns="http://www.w3.org/2000/svg" xmlns:xlink="http://www.w3.org/1999/xlink" viewBox="0 0 438 438"><defs><style>.a{fill:url(#a);}.b{fill:#fff;}.c{fill:none;stroke:#fff;stroke-miterlimit:10;stroke-width:6.57px;}.d{fill:url(#b);}.e{fill:url(#c);}.f{fill:url(#d);}.g{fill:url(#e);}.h{fill:url(#f);}</style><linearGradient id="a" x1="64.14" y1="373.86" x2="373.86" y2="64.14" gradientUnits="userSpaceOnUse"><stop offset="0" stop-color="#edd18c"/><stop offset="1" stop-color="#f3df8d"/></linearGradient><linearGradient id="b" x1="166.67" y1="318.36" x2="268.99" y2="318.36" xlink:href="#a"/><linearGradient id="c" x1="247.84" y1="249.01" x2="322.71" y2="249.01" xlink:href="#a"/><linearGradient id="d" x1="113.91" y1="249.04" x2="188.87" y2="249.04" xlink:href="#a"/><linearGradient id="e" x1="249.96" y1="208.8" x2="335.35" y2="208.8" xlink:href="#a"/><linearGradient id="f" x1="100.41" y1="209.05" x2="186.14" y2="209.05" xlink:href="#a"/></defs><circle class="a" cx="219" cy="219" r="219"/><path class="b" d="M368.31,308.81c9-8.71,16.24-18.47,18.48-31.19,1.68-9.83-3.12-14.07-12.56-11a38.52,38.52,0,0,0-12.79,7.67c-2.16,1.92-4.56,4.24-7.68,2.16-3.52-2.24-2.08-5.44-1-8.39.64-2,1.36-4,2-5.92A124.92,124.92,0,0,0,361,220.2c-.72-30.95-9.36-59.18-30.47-82.78-4-4.47-2.72-7.91,3.12-9.59,6.23-1.84,12.47-3.6,18.71-5.12,5-1.2,4.4-2.88,1.28-5.92a183,183,0,0,0-44.07-31.67A161.83,161.83,0,0,0,272.82,71a10.64,10.64,0,0,0,0,2.32c.8,3.12,3.2,6.4.16,9.36-3.28,3.2-6.71.48-10-.32-1.44-.32-2.72-1-4.16-1.36A125,125,0,0,0,212,75.12c-13.35.88-25.83,4.56-38.47,8.16-6.23,1.84-8.79-.8-7.27-7,.4-1.76,2-3.36.24-5.51-3.84,1.27-7.84,2.39-11.76,3.75a186.49,186.49,0,0,0-68,41.35c-5.68,5.44-5.68,5.6,1.6,7.76,4.64,1.44,9.28,2.56,13.92,3.76,7.75,2.08,8.87,5.2,3.59,11.35C85.52,162.06,77.36,189.73,76.56,220a130.62,130.62,0,0,0,8.16,47.83c1.12,2.87,2.72,6.07-.8,8.39s-5.84-.4-8.24-2.32a38.78,38.78,0,0,0-11.11-6.79c-4-1.52-8.4-2.88-11.92.24-3.28,2.87-2.8,7.19-1.92,11.11,3,13.2,10.56,23.43,20.48,32.23,2.23,1.92,5,3.44,4.23,7-.72,3.44-4,3-7,4.4a141.55,141.55,0,0,0,26.39,28.31c60.46,48,127.16,57.34,199,30.71,29.67-11,54.38-29.83,74.22-54.7,2.23-2.88,4.39-5-1.76-5.44-5-.4-6-4.32-2.64-8C365.12,311.45,366.87,310.25,368.31,308.81Z"/><path class="c" d="M403.82,151.18a187.5,187.5,0,0,0-7.91-18.47c-5.76-8.72-12.8-16.56-23-21.52-28.47-30.47-63.34-49.9-103.81-59.5-3.67-.88-5.83-2.72-7-6.16-2.24-6.08-4.72-12.07-6.88-18.15a7.72,7.72,0,0,0-1-2A189.42,189.42,0,0,0,219,22.18a192,192,0,0,0-32.71,2.72,13.14,13.14,0,0,0-1.44,2.8c-2.08,5.92-4.56,11.67-6.64,17.59-1.28,3.76-3.6,5.44-7.52,6.32C131,61.13,96.48,80.08,68.17,109.83c-1.44,1.52-2.72,3.84-4.8,3.68-6.4-.4-9.2,4.16-12.48,8.16-3.6,4.48-7,9-10.16,13.68A196.3,196.3,0,0,0,22.18,219c0,1.68,0,3.28.08,5V224a198.92,198.92,0,0,0,6.48,45.58v.08A197.05,197.05,0,0,0,144.06,400.86l14.8,5.52A194.32,194.32,0,0,0,219,415.82h.08c1.12,0,2.16,0,3.28-.08a192.55,192.55,0,0,0,70.7-14.47A196.89,196.89,0,0,0,403.82,151.18ZM75.44,317.77m19.44,32.71"/><path class="d" d="M262.46,306.94a13,13,0,0,0-1.79.53c-21,5.72-42.21,6.59-63.7,3.53a219.73,219.73,0,0,1-25-5.21c-1.77-.46-3.88-1-5,1.2-.93,1.84.48,3.16,1.61,4.34a50.87,50.87,0,0,0,4.57,4.24c13.5,11,29.22,15.46,46.35,15.75A69.85,69.85,0,0,0,251,324.43,48.72,48.72,0,0,0,266,313.48c1.49-1.6,3.9-3.25,2.6-5.81C267.19,304.85,264.59,306.68,262.46,306.94Z"/><path class="e" d="M319.27,238a96,96,0,0,0-26.48-4c-15.06.27-29.44,2.79-41.44,12.88-1.72,1.44-4.19,3.1-3.34,5.54,1,3,4.05,1.53,6,1.09,5.46-1.22,9.15-.5,13,4.68,6.45,8.67,21.4,7.34,24.91-2.58,3-8.44,8.33-9.58,15.29-10.29,3.92-.4,7.81-1.16,11.72-1.79,1.62-.26,3.63-.33,3.73-2.5S320.83,238.47,319.27,238Z"/><path class="f" d="M169.07,258.72c4.44-5.58,8.54-6.9,13.66-5,2.78.19,5,1.19,5.93-1.14.83-2.07-1-3.38-2.29-4.73a15.24,15.24,0,0,0-1.41-1.24c-18.27-15.39-49.24-14.6-68.63-8.16-1.16.38-2.43,1-2.42,2.52,0,1.9,1.57,2.28,3,2.52,5.55.89,11.08,1.92,16.66,2.52,4.86.52,8,1.72,9.84,7.33C147.12,264.61,161.81,267.84,169.07,258.72Z"/><path class="g" d="M329.59,195.69c-15.11,3-30.24,5.91-45.31,9.07-9.77,2-19.69,3.58-29.11,7.05-3,1.1-6,3-5,6.85.86,3.6,4.15,3.57,7.39,3.6a16.54,16.54,0,0,0,2.84-.33c23.73-6.41,47.46-12.8,70.87-20.3,1.89-.61,4.6-1.21,4-3.91C334.63,194.63,331.78,195.27,329.59,195.69Z"/><path class="h" d="M178.69,222.69c3.16-.4,6.37-.65,7.27-4.08s-1.9-5.33-4.6-6.51a46.22,46.22,0,0,0-8.89-2.83q-28.36-6-56.79-11.79c-3.86-.79-7.75-1.45-11.66-2a2.94,2.94,0,0,0-3.5,2c-.47,1.67.66,2.78,2.1,3.36a68.77,68.77,0,0,0,7,2.54q24.87,7.16,49.79,14.19C165.84,219.33,172.28,221,178.69,222.69Z"/></svg>