<svg xmlns="http://www.w3.org/2000/svg" xmlns:xlink="http://www.w3.org/1999/xlink" viewBox="0 0 30 30"><defs><style>.a{fill:url(#a);}.b{fill:#fff;}</style><linearGradient id="a" x1="4.39" y1="25.61" x2="25.61" y2="4.39" gradientUnits="userSpaceOnUse"><stop offset="0" stop-color="#cfc0a6"/><stop offset="1" stop-color="#e0d7c6"/></linearGradient></defs><circle class="a" cx="15" cy="15" r="15"/><path class="b" d="M10.81,10.38c-.91,0-2,0-3.16,0A3.3,3.3,0,0,1,4.57,7.46,3.26,3.26,0,0,1,7.3,3.85a1.09,1.09,0,0,0,.91-.64,3.1,3.1,0,0,1,2.93-1.64A3.17,3.17,0,0,1,14,3.51a.46.46,0,0,0,.44.3,3.12,3.12,0,0,1,2.78,2,3.09,3.09,0,0,1-.5,3.37,3.35,3.35,0,0,1-2.81,1.21Z"/><path class="b" d="M24.57,13.9a8.6,8.6,0,0,1-2.92,4.39l-.86.72a.41.41,0,0,0-.19.37,12.13,12.13,0,0,1-1,4.68,5.76,5.76,0,0,0-.28.92,1.11,1.11,0,0,0,.47,1.17,5.51,5.51,0,0,0,1.36.66l.41.16a13.67,13.67,0,0,1-6.19,1.46,14.06,14.06,0,0,1-4-.57v-.05a.64.64,0,0,1,.35-.67,2.37,2.37,0,0,1,.7-.21,4.4,4.4,0,0,0,2-1,14.93,14.93,0,0,0,1.63-1.55c.1-.12.26-.24.17-.43s-.28-.16-.46-.15l-.69,0c-1.69,0-3.39.07-5.08.05a3.77,3.77,0,0,1-3.35-1.92c0-.08-.16-.18-.1-.29s.2-.06.31-.06H8.15a2.27,2.27,0,0,1,1.3.22,1,1,0,0,0,.56.11l5.63-.09c.66,0,1.32,0,2,0a.54.54,0,0,0,.51-.29A3.91,3.91,0,0,0,16.35,16c-1.09-.48-2.18-.92-3.27-1.39a5.8,5.8,0,0,1-2.77-2.45c-.17-.27-.14-.3.16-.3H12.2a.44.44,0,0,1,.34.09,5.94,5.94,0,0,0,2.15,1.24l2.42,1a5.62,5.62,0,0,1,2.69,2.38c.25.41.37.43.74.12a6.55,6.55,0,0,0,2-2.87.4.4,0,0,1,.45-.32c.43,0,.86,0,1.29,0S24.68,13.53,24.57,13.9Z"/><path class="b" d="M7.42,20.13H4.78a2.88,2.88,0,0,1-.49-5.73.52.52,0,0,0,.43-.29,2.77,2.77,0,0,1,2.53-1.51A2.78,2.78,0,0,1,9.8,14.13a.43.43,0,0,0,.38.25,2.88,2.88,0,0,1,.06,5.69C9.24,20.2,8.23,20.09,7.42,20.13Z"/><path class="b" d="M22.93,12.43H20.45a2.8,2.8,0,0,1-.32-5.58.37.37,0,0,0,.32-.21,2.81,2.81,0,0,1,5,0,.4.4,0,0,0,.34.23,2.8,2.8,0,0,1-.41,5.58Z"/></svg>