<svg xmlns="http://www.w3.org/2000/svg" xmlns:xlink="http://www.w3.org/1999/xlink" viewBox="0 0 30 30"><defs><style>.a{fill:url(#a);}.b{fill:#fff;}</style><linearGradient id="a" x1="4.39" y1="25.61" x2="25.61" y2="4.39" gradientUnits="userSpaceOnUse"><stop offset="0" stop-color="#cfc0a6"/><stop offset="1" stop-color="#e0d7c6"/></linearGradient></defs><circle class="a" cx="15" cy="15" r="15"/><path class="b" d="M18.17,11.91,11.7,22.14c-.63,1-1.29,2-1.89,3L9.55,25a14.5,14.5,0,0,1-3.66-2.17q3.33-5.22,6.62-10.46a.84.84,0,0,1,.8-.5Z"/><path class="b" d="M22.27,24.14a12.42,12.42,0,0,1-1.83.9,14.27,14.27,0,0,1-2.35.74,1.12,1.12,0,0,0-.05-.13c-.86-2.21-1.75-4.41-2.63-6.61-.1-.26-.22-.51-.06-.77C16.18,16.88,17,15.5,18,13.92c1.49,3.49,2.85,6.74,4.24,10A1.07,1.07,0,0,1,22.27,24.14Z"/><path class="b" d="M27.81,9.9a33.35,33.35,0,0,1-8,1.62.68.68,0,0,0-.5.3l-.57.89a.7.7,0,0,0-.06.6l1.58,4.08a41.69,41.69,0,0,0,8.57-1.62c0-.19,0-.37,0-.56A14,14,0,0,0,27.81,9.9ZM2.19,9.9a14,14,0,0,0-1,5.31c0,.19,0,.37,0,.56a39,39,0,0,0,7.29,1.48l3.48-5.6A35,35,0,0,1,2.19,9.9Z"/></svg>