<svg xmlns="http://www.w3.org/2000/svg" xmlns:xlink="http://www.w3.org/1999/xlink" viewBox="0 0 30 30"><defs><style>.a{fill:url(#a);}.b{fill:#fff;}</style><linearGradient id="a" x1="4.39" y1="25.61" x2="25.61" y2="4.39" gradientUnits="userSpaceOnUse"><stop offset="0" stop-color="#cfc0a6"/><stop offset="1" stop-color="#e0d7c6"/></linearGradient></defs><circle class="a" cx="15" cy="15" r="15"/><path class="b" d="M28.21,13.32c-.08-.43-.22-.85-.34-1.32l-1.59.44a10.58,10.58,0,0,1-.46,7.84A11.15,11.15,0,0,1,20,25.91a12.18,12.18,0,0,1-12-1.1H18.44l0-.09a10.42,10.42,0,0,0-5.31-1.39l.33-.24a10.74,10.74,0,0,0,3.64-4.25,4,4,0,0,0,.41-1.91,1.68,1.68,0,0,0-1.45-1.63,1.44,1.44,0,0,1-.23-.07.45.45,0,0,1,.12-.12c1.72-1.52,3.44-3,5.17-4.54a.66.66,0,0,1,.38-.12,10.28,10.28,0,0,0,5.28-1.28L27,9A.14.14,0,0,1,27,9H24.93A2.75,2.75,0,0,0,26.2,7.52,2.72,2.72,0,0,0,26.33,7a.32.32,0,0,0,0-.21h0l0,0a.63.63,0,0,0-.41,0l-.19,0a10.45,10.45,0,0,1-3.74,0c-.64-.13-.73,0-.65.32a3,3,0,0,0,1,1.54,4.82,4.82,0,0,0,.5.33c-.39,0-.71,0-1,0a1.39,1.39,0,0,0-.85.22l-4.55,2.64-.28.15L13.38,6.93a.6.6,0,0,1,.27.06,3.41,3.41,0,0,0,4.82-2.24.37.37,0,0,0-.19-.47c-.45-.26-.87-.54-1.32-.84.25-.28.48-.54.73-.85l-2.06-.91a4.11,4.11,0,0,0-.46-.15h-.51l-.5,0-.51,0a1.67,1.67,0,0,0-.72.21,2.93,2.93,0,0,0-.7.59c-.29.31-.55.65-.85,1a1.21,1.21,0,0,1-.49.31A12.88,12.88,0,0,0,1.54,15.39,13.46,13.46,0,0,0,14.29,28.46h1c.21,0,.42,0,.62,0l.5,0a13.46,13.46,0,0,0,12.08-13A11.13,11.13,0,0,0,28.21,13.32ZM10.07,11.56l5.54,3.67a6.7,6.7,0,0,0-3,1,11.88,11.88,0,0,0-2.5,1.95Z"/></svg>