<svg xmlns="http://www.w3.org/2000/svg" xmlns:xlink="http://www.w3.org/1999/xlink" viewBox="0 0 30 30"><defs><style>.a{fill:url(#a);}.b{fill:#fff;}.c{fill:none;stroke:#fff;stroke-miterlimit:10;stroke-width:0.45px;}.d{fill:url(#b);}.e{fill:url(#c);}.f{fill:url(#d);}</style><linearGradient id="a" x1="4.39" y1="25.61" x2="25.61" y2="4.39" gradientUnits="userSpaceOnUse"><stop offset="0" stop-color="#cfc0a6"/><stop offset="1" stop-color="#e0d7c6"/></linearGradient><linearGradient id="b" x1="13.95" y1="26.15" x2="16.16" y2="26.15" xlink:href="#a"/><linearGradient id="c" x1="17.13" y1="22.07" x2="20.29" y2="22.07" xlink:href="#a"/><linearGradient id="d" x1="9.69" y1="22.07" x2="12.84" y2="22.07" xlink:href="#a"/></defs><circle class="a" cx="15" cy="15" r="15"/><path class="b" d="M14.9,28.33a6.31,6.31,0,0,0,3.56-1.08,0,0,0,0,0,0,0l.42-.31A6.42,6.42,0,0,0,20,25.69a6.16,6.16,0,0,0,1.13-3.61c0-.48,0-1,0-1.45v-.27c0-.25,0-.35-.17-.39a.85.85,0,0,0-.25,0H13a.62.62,0,0,1-.61-.36,7.64,7.64,0,0,1-.46-1.32c-.1-.3-.19-.6-.28-.89a2.12,2.12,0,0,0-.11-.21c0-.06-.08-.12-.15-.1s-.11.07-.14.14a5.06,5.06,0,0,0-.18.77,11.35,11.35,0,0,1-.3,1.38c0,.11-.07.21-.1.31a.44.44,0,0,1-.48.29c-.39,0-.78,0-1.17,0a.6.6,0,0,0-.21,0c-.11,0-.15.14-.15.31v.22A18.19,18.19,0,0,0,8.74,23a6.06,6.06,0,0,0,2,3.82l.49.4A7.17,7.17,0,0,0,14.9,28.33Z"/><path class="c" d="M25.21,14.36a10.73,10.73,0,0,0-1.81-3.15h0l0,0h0a8.17,8.17,0,0,0-.85-.91h0a10.88,10.88,0,0,0-7.52-3,10.4,10.4,0,0,0-2.38.26A10.89,10.89,0,0,0,4.1,18.11a2.62,2.62,0,0,0,0,.28h0a10.43,10.43,0,0,0,.36,2.52h0a.83.83,0,0,0,0,.15A8.53,8.53,0,0,0,9,26.34a12.67,12.67,0,0,0,2.27.87,4.52,4.52,0,0,1-.49-.4,6,6,0,0,1-2-3.81,21.81,21.81,0,0,1-.07-2.68c0-.25.09-.33.36-.34s.78,0,1.17,0a.45.45,0,0,0,.48-.3c0-.1.07-.2.1-.3a11.1,11.1,0,0,0,.3-1.39,5.36,5.36,0,0,1,.18-.77c0-.06.06-.13.14-.14s.12.05.15.11a2,2,0,0,1,.11.2c.09.3.18.6.28.9a6.56,6.56,0,0,0,.46,1.31A.63.63,0,0,0,13,20c2.57,0,5.14,0,7.72,0,.35,0,.42.06.42.42,0,.57,0,1.14,0,1.72A6.16,6.16,0,0,1,20,25.73a6.28,6.28,0,0,1-1.57,1.56,13.46,13.46,0,0,0,2.85-1.1,8.25,8.25,0,0,0,4-4.7,10.84,10.84,0,0,0-.13-7.13Z"/><path class="d" d="M16.16,25.81A1.23,1.23,0,0,1,15,26.94a.71.71,0,0,1-.32-.07,1.28,1.28,0,0,1-.44-.3,1.16,1.16,0,0,1-.33-.85c0-.3.17-.43.44-.31a1.4,1.4,0,0,0,1.29,0,.36.36,0,0,1,.33,0,.08.08,0,0,1,0,0l0,0A.57.57,0,0,1,16.16,25.81Z"/><path class="e" d="M20.22,21.68a.69.69,0,0,1-.84.29l-.4-.14c.14.42.11.64-.12.83a.58.58,0,0,1-.62.09l0,0a.16.16,0,0,1-.08,0l-.1-.09a.85.85,0,0,1-.07-.68h0a1.1,1.1,0,0,0-.4.34c-.08.09-.16.18-.27.12l-.06,0c-.11-.11,0-.21,0-.31a1.64,1.64,0,0,1,1.94-.52l.22.09c.25.1.37.08.53-.13s.16-.17.28-.1l.05.05C20.33,21.49,20.28,21.59,20.22,21.68Z"/><path class="f" d="M12.78,22.33a.14.14,0,0,1-.18,0,.28.28,0,0,1-.09-.07l0,0-.14-.14a.8.8,0,0,0-.13-.13l-.08-.06L12,21.87a.63.63,0,0,1-.24.86.6.6,0,0,1-.58,0l-.09-.06c-.21-.19-.25-.41-.1-.83h0l-.42.15a.72.72,0,0,1-.5,0,.69.69,0,0,1-.23-.16l-.06-.07a.41.41,0,0,1,0-.09.18.18,0,0,1,.22-.27s0,0,.06,0a.93.93,0,0,0,.29.23c.1.05.2,0,.44-.1a1.73,1.73,0,0,1,1.46,0,1.5,1.5,0,0,1,.43.33l.13.15v0C12.84,22.14,12.89,22.24,12.78,22.33Z"/><path class="c" d="M15.26,2.29a5.92,5.92,0,0,1,3.83,1.43,3.58,3.58,0,0,1,1.29,3.35.25.25,0,0,1,0,.12c-.24.83-.38.77-1,.52a10.87,10.87,0,0,0-9,.13c-.25.11-.36.08-.46-.16a3.13,3.13,0,0,1,.24-2.94A4.85,4.85,0,0,1,13,2.6,7.16,7.16,0,0,1,15.26,2.29Z"/><path class="c" d="M9.35,1.74a.83.83,0,0,1,.78.06l.79.52c.27.17.27.3,0,.49-.41.32-.49.32-.92,0L8.91,2.13A.41.41,0,0,1,8.77,2Z"/><path class="c" d="M21,2a.8.8,0,0,0-.78,0l-.79.52c-.26.18-.26.3,0,.5s.48.32.91,0l1.12-.73a.37.37,0,0,0,.13-.12Z"/></svg>