<svg xmlns="http://www.w3.org/2000/svg" xmlns:xlink="http://www.w3.org/1999/xlink" viewBox="0 0 30 30"><defs><style>.a{fill:url(#a);}.b{fill:#fff;}.c{fill:none;stroke:#fff;stroke-miterlimit:10;stroke-width:0.6px;}.d{fill:url(#b);}.e{fill:url(#c);}.f{fill:url(#d);}</style><linearGradient id="a" x1="4.39" y1="25.61" x2="25.61" y2="4.39" gradientUnits="userSpaceOnUse"><stop offset="0" stop-color="#cfc0a6"/><stop offset="1" stop-color="#e0d7c6"/></linearGradient><linearGradient id="b" x1="9.55" y1="17.31" x2="12.49" y2="17.31" xlink:href="#a"/><linearGradient id="c" x1="17.34" y1="17.31" x2="20.28" y2="17.31" xlink:href="#a"/><linearGradient id="d" x1="14.24" y1="19.12" x2="15.75" y2="19.12" xlink:href="#a"/></defs><circle class="a" cx="15" cy="15" r="15"/><path class="b" d="M22.18,19.54a4,4,0,0,1-4,4.1H11.74a4,4,0,0,1-4-4.1V15.08h14.4Z"/><path class="c" d="M27.65,10.36a13.18,13.18,0,0,0-2.24-3.91h0a0,0,0,0,1,0,0l0,0h0A11.34,11.34,0,0,0,24.3,5.26h0A13.42,13.42,0,0,0,15,1.53a13.08,13.08,0,0,0-2.95.33A13.45,13.45,0,0,0,1.53,15v.34h0A13.43,13.43,0,0,0,2,18.47H2a13.51,13.51,0,0,0,8,9,13.32,13.32,0,0,0,5.07,1h.23A13.48,13.48,0,0,0,27.65,10.36Z"/><path class="d" d="M9.55,17.47l2.94.06S11.47,16.55,9.55,17.47Z"/><path class="e" d="M20.28,17.47l-2.94.06S18.36,16.55,20.28,17.47Z"/><path class="f" d="M15,19.75h0l-.64-.64a.1.1,0,0,1,0-.05.34.34,0,0,1-.06-.15v-.1a.3.3,0,0,1,.12-.22.33.33,0,0,1,.25-.08l.11,0,.12.08.15.15h0l.11-.11.06-.06a.32.32,0,0,1,.21-.08.34.34,0,0,1,.1,0,.45.45,0,0,1,.19.11.37.37,0,0,1,.08.3.32.32,0,0,1-.1.19l-.6.6Z"/><path class="b" d="M18.8,6.82c-1.56-.52-2.56-1.7-2.25-2.62S18.37,3,19.93,3.47s2.56,1.7,2.25,2.62-1.83,1.25-3.38.73"/></svg>