<svg xmlns="http://www.w3.org/2000/svg" xmlns:xlink="http://www.w3.org/1999/xlink" viewBox="0 0 30 30"><defs><style>.a{fill:url(#a);}.b{fill:#fff;}</style><linearGradient id="a" x1="4.39" y1="25.61" x2="25.61" y2="4.39" gradientUnits="userSpaceOnUse"><stop offset="0" stop-color="#cfc0a6"/><stop offset="1" stop-color="#e0d7c6"/></linearGradient></defs><circle class="a" cx="15" cy="15" r="15"/><path class="b" d="M1.87,10.73A16.76,16.76,0,0,0,4.13,9.05l1.16-1a3.62,3.62,0,0,1,2.82-.85,1.55,1.55,0,0,1,1.11.64c1.29,1.74,2.61,3.45,3.93,5.16.13.18.15.29,0,.46-.31.36-.3.37-.75.22l-1.46-.47a.49.49,0,0,0-.55.1.48.48,0,0,0,.22.81l1.69.55c.17.05.27.12.27.33s-.1.28-.28.34c-2,.68-4.07,1.36-6.1,2.06A1.5,1.5,0,0,1,5,17.35a3.53,3.53,0,0,1-1.89-2.28c-.33-1.21-.59-2.43-1-3.62a3.61,3.61,0,0,0-.24-.62Z"/><path class="b" d="M22,26.14a27.21,27.21,0,0,0-2.85.15,3.94,3.94,0,0,1-2.87-.78,2.4,2.4,0,0,1-.45-.45,1.19,1.19,0,0,1-.27-.78q0-3.29,0-6.57c0-.14,0-.29.16-.36a.28.28,0,0,1,.39.11c.33.47.67.93,1,1.39a.58.58,0,0,0,.35.28A.46.46,0,0,0,18,19a.48.48,0,0,0,0-.58c-.33-.47-.67-.95-1-1.41-.16-.2-.18-.35,0-.53a.3.3,0,0,0,.09-.13c.08-.22.23-.21.43-.14l5.1,1.72c.36.12.72.26,1.09.36a1.3,1.3,0,0,1,.82.66,3.48,3.48,0,0,1,.2,3.11c-.49,1.32-1.09,2.6-1.45,4,0,.14-.12.16-.24.16Z"/><path class="b" d="M14.61,21.08c0,1,0,2.08,0,3.13a1.33,1.33,0,0,1-.37,1,3.5,3.5,0,0,1-2.89,1.16c-1.41-.07-2.81-.21-4.23-.15-.1,0-.19,0-.23-.13a31.34,31.34,0,0,0-1.43-3.9,3.91,3.91,0,0,1-.11-2.59A2.78,2.78,0,0,1,5.59,19a1.29,1.29,0,0,1,.75-.62c2.05-.68,4.1-1.38,6.15-2.07.36-.12.35-.12.57.19a.25.25,0,0,1,0,.36c-.29.39-.57.79-.86,1.19l-.21.29a.49.49,0,1,0,.79.56c.35-.46.71-.92,1-1.41.2-.31.4-.14.62-.1s.2.2.2.36Z"/><path class="b" d="M14.5,11.54v.9c0,.13,0,.25-.18.3s-.21-.06-.29-.16c-1.3-1.71-2.58-3.45-3.94-5.12a1.85,1.85,0,0,1-.25-2,3.81,3.81,0,0,1,1.6-1.94,37.32,37.32,0,0,0,3.19-2.1c.36-.27.35-.27.7,0,1,.81,2.21,1.47,3.32,2.19a3.57,3.57,0,0,1,1.64,2.6,1.27,1.27,0,0,1-.24,1c-1.31,1.79-2.6,3.58-3.9,5.38-.12.17-.22.26-.46.18s-.23-.23-.23-.42V10.67c0-.36-.18-.55-.49-.55s-.46.18-.47.55v.87Z"/><path class="b" d="M19.2,13.2a1.11,1.11,0,0,0-.34.08c-.52.17-1.06.33-1.58.52-.24.09-.29-.09-.4-.21a.25.25,0,0,1,0-.36Q18.94,10.43,21,7.6A1.32,1.32,0,0,1,22,7.13,3.73,3.73,0,0,1,24.76,8c.95.8,1.9,1.6,2.9,2.33.16.12.4.17.46.35s-.11.36-.17.54c-.4,1.21-.68,2.46-1,3.69a3.6,3.6,0,0,1-1.8,2.29,1.33,1.33,0,0,1-1.17.11c-2.08-.72-4.17-1.41-6.25-2.11l-.17-.06c-.12,0-.14-.12-.15-.23s.09-.16.17-.19l1.71-.55a.53.53,0,0,0,.43-.58A.48.48,0,0,0,19.2,13.2Z"/><path class="b" d="M16.41,15.05A1.44,1.44,0,0,1,15,16.5a1.45,1.45,0,0,1-1.44-1.44A1.48,1.48,0,0,1,15,13.61,1.45,1.45,0,0,1,16.41,15.05Z"/></svg>