<svg xmlns="http://www.w3.org/2000/svg" xmlns:xlink="http://www.w3.org/1999/xlink" viewBox="0 0 30 30"><defs><style>.a{fill:url(#a);}.b{fill:#fff;}</style><linearGradient id="a" x1="4.39" y1="25.61" x2="25.61" y2="4.39" gradientUnits="userSpaceOnUse"><stop offset="0" stop-color="#edd18c"/><stop offset="1" stop-color="#f3df8d"/></linearGradient></defs><circle class="a" cx="15" cy="15" r="15"/><path class="b" d="M11.06,3.56A5.4,5.4,0,0,0,9.18,5.42a4.48,4.48,0,0,0-.42.85c-.15.38,0,.55.37.56a4.54,4.54,0,0,1,3.2,1.42,4.55,4.55,0,0,1,1.08,4.87,4.53,4.53,0,0,1-3.87,3.16,4.64,4.64,0,0,1-5.29-4.14,7.85,7.85,0,0,1,3.24-7.4,7.07,7.07,0,0,1,3.28-1.21H11Z"/><path class="b" d="M8.29,24.53c.13,0,.2,0,.28.09a5.42,5.42,0,0,0,3.17.5c.45-.06.54-.23.34-.64a4.75,4.75,0,1,1,6.4,2A8.93,8.93,0,0,1,14,27.68a7.1,7.1,0,0,1-5.64-3.05S8.31,24.58,8.29,24.53Z"/><path class="b" d="M26.21,16c-.05-.32-.08-.63-.13-.94a5.18,5.18,0,0,0-1-2.3c-.3-.4-.48-.39-.76,0A4.62,4.62,0,0,1,20.35,15a4.75,4.75,0,1,1,.06-9.5,4.56,4.56,0,0,1,2.24.63,8.9,8.9,0,0,1,3.62,3.77,7,7,0,0,1,.07,6C26.32,15.94,26.31,16,26.21,16Z"/></svg>