<svg xmlns="http://www.w3.org/2000/svg" xmlns:xlink="http://www.w3.org/1999/xlink" viewBox="0 0 30 30"><defs><style>.a{fill:url(#a);}.b{fill:#fff;}</style><linearGradient id="a" x1="4.39" y1="25.61" x2="25.61" y2="4.39" gradientUnits="userSpaceOnUse"><stop offset="0" stop-color="#758427"/><stop offset="1" stop-color="#a4ac59"/></linearGradient></defs><circle class="a" cx="15" cy="15" r="15"/><path class="b" d="M7.68,4.27c.16.07.22.14.17.33a4.68,4.68,0,0,0,0,2.17,4.82,4.82,0,0,0,4.29,3.68,7.3,7.3,0,0,1,1.23.11,4,4,0,0,1,2.06,6.52,6.07,6.07,0,0,0-1.15,1.64,7.77,7.77,0,0,0-.4,3.28.17.17,0,0,0,.12.18c.1,0,.16,0,.23-.09,1.05-1.07,2.15-2.1,3.15-3.21a6.42,6.42,0,0,0,1.48-6.25,6.53,6.53,0,0,0-6.24-4.82.94.94,0,0,1-.54-.15.87.87,0,0,1-.36-1,.82.82,0,0,1,.83-.6h12c-.15-.18-.31-.35-.47-.51l-.45-.08L15.76,4.06a2.92,2.92,0,0,1-1.46-.51A2.71,2.71,0,0,0,12.51,3H9.05L9,2.86a11.32,11.32,0,0,0-3.09,2.4A16.47,16.47,0,0,0,3.62,8.41l.07,0A16.35,16.35,0,0,1,6,5.37,13.15,13.15,0,0,1,7.39,4.15Z"/><path class="b" d="M29.07,14.62A2.89,2.89,0,0,0,26.26,17,11.72,11.72,0,0,1,14.8,26.32a11.46,11.46,0,0,1-4.7-1l-.52-.24c0-1.63,0-3.07,0-3.72a12.63,12.63,0,0,1,.12-2.3A9.25,9.25,0,0,1,12.37,14l1.8-1.81c.22-.22.21-.31-.06-.46a3,3,0,0,0-3.09,0,5.12,5.12,0,0,0-1.43,1.39,11.59,11.59,0,0,0-2.65,7.21c0,1.37,0,2.75,0,4.13v1.36A1.32,1.32,0,0,0,7.57,27a13.69,13.69,0,0,0,1.48.75l.53.22A14.28,14.28,0,0,0,29.09,14.62Z"/><path class="b" d="M14.77,16.58a3.1,3.1,0,0,0,.45-3.71c-.15-.26-.24-.28-.44-.07-.74.74-1.51,1.47-2.21,2.25a7.31,7.31,0,0,0-2.13,5c0,.77,0,1.19,0,2v2.72c0,.1,0,.22.11.27s.17,0,.23-.1l2.12-2.14a.59.59,0,0,0,.18-.45c0-.65,0-1.29,0-1.94a4.26,4.26,0,0,1,.07-.87A5,5,0,0,1,14.77,16.58Z"/></svg>