<svg xmlns="http://www.w3.org/2000/svg" xmlns:xlink="http://www.w3.org/1999/xlink" viewBox="0 0 30 30"><defs><style>.a{fill:url(#a);}.b{fill:#fff;}.c{fill:none;stroke:#fff;stroke-miterlimit:10;stroke-width:0.45px;}.d{fill:url(#b);}.e{fill:url(#c);}.f{fill:url(#d);}.g{fill:url(#e);}.h{fill:url(#f);}</style><linearGradient id="a" x1="4.39" y1="25.61" x2="25.61" y2="4.39" gradientUnits="userSpaceOnUse"><stop offset="0" stop-color="#758427"/><stop offset="1" stop-color="#a4ac59"/></linearGradient><linearGradient id="b" x1="11.42" y1="21.81" x2="18.42" y2="21.81" xlink:href="#a"/><linearGradient id="c" x1="16.98" y1="17.06" x2="22.1" y2="17.06" xlink:href="#a"/><linearGradient id="d" x1="7.8" y1="17.06" x2="12.94" y2="17.06" xlink:href="#a"/><linearGradient id="e" x1="17.12" y1="14.3" x2="22.97" y2="14.3" xlink:href="#a"/><linearGradient id="f" x1="6.88" y1="14.32" x2="12.75" y2="14.32" xlink:href="#a"/></defs><circle class="a" cx="15" cy="15" r="15"/><path class="b" d="M25.23,21.15A3.87,3.87,0,0,0,26.49,19c.12-.68-.21-1-.86-.76a2.52,2.52,0,0,0-.87.53c-.15.13-.32.29-.53.14s-.14-.37-.07-.57.09-.28.14-.41a8.77,8.77,0,0,0,.43-2.87,8.47,8.47,0,0,0-2.09-5.67c-.27-.3-.18-.54.22-.65s.85-.25,1.28-.36.3-.19.08-.4a12.41,12.41,0,0,0-3-2.17,11.11,11.11,0,0,0-2.52-1,.71.71,0,0,0,0,.15c0,.22.22.44,0,.65s-.46,0-.69,0-.18-.06-.28-.09a8.5,8.5,0,0,0-3.21-.4,12.94,12.94,0,0,0-2.63.55c-.43.13-.6,0-.5-.47,0-.12.14-.23,0-.38-.27.09-.54.16-.81.26A12.64,12.64,0,0,0,6,7.94c-.39.37-.39.38.1.53.32.1.64.18,1,.26.53.14.61.35.24.78a8.51,8.51,0,0,0-2,5.56,9.24,9.24,0,0,0,.56,3.28c.08.19.19.41,0,.57s-.4,0-.57-.16a2.58,2.58,0,0,0-.76-.46.74.74,0,0,0-.81,0,.74.74,0,0,0-.14.77,4.19,4.19,0,0,0,1.41,2.2c.15.13.34.24.29.49s-.28.2-.48.3A9.87,9.87,0,0,0,6.5,24a13.26,13.26,0,0,0,13.63,2.1,11.65,11.65,0,0,0,5.08-3.75c.15-.2.3-.34-.12-.37s-.41-.3-.18-.55S25.13,21.25,25.23,21.15Z"/><path class="c" d="M27.66,10.35q-.24-.64-.54-1.26a4,4,0,0,0-1.58-1.47,13.9,13.9,0,0,0-7.11-4.08A.61.61,0,0,1,18,3.12c-.16-.42-.33-.83-.47-1.24a.61.61,0,0,0-.07-.14,13.3,13.3,0,0,0-4.65,0,.85.85,0,0,0-.1.19c-.14.4-.31.8-.45,1.2a.61.61,0,0,1-.52.43,14.08,14.08,0,0,0-7,4c-.1.11-.19.27-.33.25-.44,0-.63.29-.85.56S3,9,2.79,9.27A13.39,13.39,0,0,0,1.52,15v.34h0A14,14,0,0,0,2,18.47H2a13.52,13.52,0,0,0,7.9,9l1,.37a13.07,13.07,0,0,0,4.12.65h.23a13.2,13.2,0,0,0,4.84-1,13.49,13.49,0,0,0,7.59-17.13ZM5.17,21.77,6.5,24"/><path class="d" d="M18,21l-.13,0a10.68,10.68,0,0,1-4.36.24,14,14,0,0,1-1.71-.36c-.12,0-.27-.06-.34.09s0,.21.11.29a2.81,2.81,0,0,0,.31.29A4.93,4.93,0,0,0,15,22.69a4.73,4.73,0,0,0,2.16-.47,3.18,3.18,0,0,0,1-.75c.1-.11.27-.22.18-.4S18.12,21,18,21Z"/><path class="e" d="M21.87,16.3A7,7,0,0,0,20.05,16a4.3,4.3,0,0,0-2.83.88c-.12.1-.29.21-.23.38s.27.11.41.08a.73.73,0,0,1,.89.32A1,1,0,0,0,20,17.51c.2-.58.57-.66,1-.71a7.54,7.54,0,0,0,.81-.12c.11,0,.25,0,.25-.17S22,16.33,21.87,16.3Z"/><path class="f" d="M11.58,17.72a.76.76,0,0,1,.94-.34c.19,0,.34.08.4-.08s-.07-.23-.16-.33a.73.73,0,0,0-.09-.08c-1.25-1.06-3.37-1-4.7-.56-.08,0-.17.07-.17.17s.11.16.21.17c.38.07.76.14,1.14.18a.65.65,0,0,1,.67.5A1,1,0,0,0,11.58,17.72Z"/><path class="g" d="M22.57,13.4l-3.1.62a13.45,13.45,0,0,0-2,.49c-.21.07-.41.2-.35.47s.29.24.51.24a.65.65,0,0,0,.19,0c1.63-.44,3.25-.88,4.86-1.39.13,0,.31-.08.27-.27S22.72,13.37,22.57,13.4Z"/><path class="h" d="M12.24,15.25c.22,0,.44,0,.5-.28s-.13-.36-.32-.44a3.11,3.11,0,0,0-.61-.2l-3.89-.8c-.26-.06-.53-.1-.8-.14a.2.2,0,0,0-.24.13c0,.12,0,.19.15.23a4.68,4.68,0,0,0,.48.18l3.41,1Z"/></svg>