<svg xmlns="http://www.w3.org/2000/svg" xmlns:xlink="http://www.w3.org/1999/xlink" viewBox="0 0 30 30"><defs><style>.a{fill:url(#a);}.b{fill:#fff;}.c{fill:none;stroke:#fff;stroke-miterlimit:10;stroke-width:0.6px;}.d{fill:url(#b);}.e{fill:url(#c);}.f{fill:url(#d);}</style><linearGradient id="a" x1="4.39" y1="25.61" x2="25.61" y2="4.39" gradientUnits="userSpaceOnUse"><stop offset="0" stop-color="#758427"/><stop offset="1" stop-color="#a4ac59"/></linearGradient><linearGradient id="b" x1="9.56" y1="17.31" x2="12.5" y2="17.31" xlink:href="#a"/><linearGradient id="c" x1="17.35" y1="17.31" x2="20.28" y2="17.31" xlink:href="#a"/><linearGradient id="d" x1="14.25" y1="19.12" x2="15.76" y2="19.12" xlink:href="#a"/></defs><circle class="a" cx="15" cy="15" r="15"/><path class="b" d="M22.19,19.54a4,4,0,0,1-4,4.1H11.74a4,4,0,0,1-3.95-4.1V15.08h14.4Z"/><path class="c" d="M27.66,10.36a13.4,13.4,0,0,0-2.24-3.91h0a0,0,0,0,0,0,0l0,0h0a10.18,10.18,0,0,0-1.05-1.13h0A13.38,13.38,0,0,0,15,1.53a13,13,0,0,0-2.95.33A13.45,13.45,0,0,0,1.54,15v.34h0A14,14,0,0,0,2,18.47H2a13.56,13.56,0,0,0,8,9,13.41,13.41,0,0,0,5.08,1h.23A13.48,13.48,0,0,0,27.66,10.36Z"/><path class="d" d="M9.56,17.47l2.94.06S11.48,16.55,9.56,17.47Z"/><path class="e" d="M20.28,17.47l-2.93.06S18.36,16.55,20.28,17.47Z"/><path class="f" d="M15,19.75h0l-.64-.64a.1.1,0,0,1,0-.05.2.2,0,0,1-.06-.15v-.1a.3.3,0,0,1,.12-.22.33.33,0,0,1,.25-.08l.1,0a.57.57,0,0,1,.13.08l.14.15h0l.11-.11.06-.06a.32.32,0,0,1,.21-.08.27.27,0,0,1,.09,0,.4.4,0,0,1,.19.11.34.34,0,0,1,.09.3.39.39,0,0,1-.1.19l-.6.6Z"/><path class="b" d="M18.81,6.82c-1.56-.52-2.57-1.7-2.25-2.62S18.38,3,19.93,3.47s2.57,1.7,2.25,2.62-1.82,1.25-3.37.73"/></svg>