<svg xmlns="http://www.w3.org/2000/svg" xmlns:xlink="http://www.w3.org/1999/xlink" viewBox="0 0 30 30"><defs><style>.a{fill:url(#a);}.b{fill:#fff;}.c{fill:none;stroke:#fff;stroke-miterlimit:10;stroke-width:0.45px;}.d{fill:url(#b);}.e{fill:url(#c);}.f{fill:url(#d);}</style><linearGradient id="a" x1="4.39" y1="25.61" x2="25.61" y2="4.39" gradientUnits="userSpaceOnUse"><stop offset="0" stop-color="#758427"/><stop offset="1" stop-color="#a4ac59"/></linearGradient><linearGradient id="b" x1="13.96" y1="26.15" x2="16.17" y2="26.15" xlink:href="#a"/><linearGradient id="c" x1="17.15" y1="22.07" x2="20.3" y2="22.07" xlink:href="#a"/><linearGradient id="d" x1="9.71" y1="22.07" x2="12.86" y2="22.07" xlink:href="#a"/></defs><circle class="a" cx="15" cy="15" r="15"/><path class="b" d="M14.92,28.33a6.26,6.26,0,0,0,3.55-1.08s0,0,0,0l.42-.31A6.07,6.07,0,0,0,20,25.69a6.17,6.17,0,0,0,1.14-3.61c0-.48,0-1,0-1.45v-.27c0-.25,0-.35-.18-.39a.81.81,0,0,0-.25,0H13a.61.61,0,0,1-.61-.36A6.92,6.92,0,0,1,12,18.25l-.27-.89c0-.07-.08-.14-.11-.21s-.09-.12-.15-.1-.12.07-.14.14a5.09,5.09,0,0,0-.19.77,11.3,11.3,0,0,1-.29,1.38,2.83,2.83,0,0,1-.11.31.43.43,0,0,1-.47.29c-.39,0-.78,0-1.17,0a.56.56,0,0,0-.21,0c-.11,0-.15.14-.15.31v.22A20,20,0,0,0,8.75,23a6.07,6.07,0,0,0,2,3.82c.15.14.32.27.48.4A7.18,7.18,0,0,0,14.92,28.33Z"/><path class="c" d="M25.23,14.36a11,11,0,0,0-1.82-3.15h0l0,0h0a9.32,9.32,0,0,0-.86-.91h0a10.86,10.86,0,0,0-7.51-3,10.34,10.34,0,0,0-2.38.26A10.86,10.86,0,0,0,4.12,18.11v.28h0a11.52,11.52,0,0,0,.36,2.52h0s0,.1,0,.15A8.55,8.55,0,0,0,9,26.34a12.87,12.87,0,0,0,2.26.87,3.64,3.64,0,0,1-.48-.4,6,6,0,0,1-2-3.81,21.8,21.8,0,0,1-.06-2.68c0-.25.08-.33.36-.34s.78,0,1.17,0a.43.43,0,0,0,.47-.3c0-.1.08-.2.11-.3A11.07,11.07,0,0,0,11.09,18a5.41,5.41,0,0,1,.19-.77c0-.06.05-.13.13-.14s.12.05.16.11a1.86,1.86,0,0,1,.1.2c.1.3.18.6.28.9a6.59,6.59,0,0,0,.47,1.31A.61.61,0,0,0,13,20c2.57,0,5.15,0,7.72,0,.36,0,.43.06.43.42,0,.57,0,1.14,0,1.72A6.24,6.24,0,0,1,20,25.73a6.09,6.09,0,0,1-1.56,1.56,13.37,13.37,0,0,0,2.84-1.1,8.3,8.3,0,0,0,4.05-4.7,10.84,10.84,0,0,0-.13-7.13Z"/><path class="d" d="M16.17,25.81a1.23,1.23,0,0,1-1.11,1.13.68.68,0,0,1-.32-.07,1.19,1.19,0,0,1-.44-.3,1.17,1.17,0,0,1-.34-.85c0-.3.18-.43.45-.31a1.4,1.4,0,0,0,1.29,0,.34.34,0,0,1,.32,0,.1.1,0,0,1,.05,0l0,0A.58.58,0,0,1,16.17,25.81Z"/><path class="e" d="M20.23,21.68a.68.68,0,0,1-.83.29L19,21.83c.15.42.11.64-.11.83a.59.59,0,0,1-.62.09l-.06,0-.08,0a.76.76,0,0,1-.09-.09A.81.81,0,0,1,18,21.9a0,0,0,0,1,0,0,1.14,1.14,0,0,0-.41.34c-.07.09-.15.18-.27.12l-.06,0c-.11-.11,0-.21.05-.31a1.64,1.64,0,0,1,1.94-.52l.21.09c.26.1.37.08.54-.13s.16-.17.27-.1l.05.05C20.34,21.49,20.3,21.59,20.23,21.68Z"/><path class="f" d="M12.8,22.33c-.07.06-.13.07-.18,0a.28.28,0,0,1-.09-.07l0,0a.86.86,0,0,0-.13-.14,1.59,1.59,0,0,0-.13-.13l-.09-.06L12,21.87c.13.37.1.66-.23.86a.6.6,0,0,1-.58,0l-.09-.06c-.22-.19-.25-.41-.11-.83,0,0,0,0,0,0l-.43.15a.69.69,0,0,1-.49,0,.6.6,0,0,1-.23-.16l-.06-.07-.06-.09a.19.19,0,0,1,.23-.27l.06,0a1.07,1.07,0,0,0,.28.23c.11.05.2,0,.44-.1a1.73,1.73,0,0,1,1.46,0,1.54,1.54,0,0,1,.44.33l.12.15,0,0C12.85,22.14,12.91,22.24,12.8,22.33Z"/><path class="c" d="M15.27,2.29a5.92,5.92,0,0,1,3.84,1.43A3.58,3.58,0,0,1,20.4,7.07s0,.08,0,.12c-.24.83-.38.77-1,.52a10.89,10.89,0,0,0-9,.13c-.24.11-.35.08-.46-.16a3.13,3.13,0,0,1,.25-2.94A4.82,4.82,0,0,1,13,2.6,7.13,7.13,0,0,1,15.27,2.29Z"/><path class="c" d="M9.36,1.74a.83.83,0,0,1,.78.06c.27.17.54.34.8.52s.26.3,0,.49c-.41.32-.48.32-.91,0L8.92,2.13A.37.37,0,0,1,8.79,2Z"/><path class="c" d="M21,2a.8.8,0,0,0-.78,0l-.8.52c-.26.18-.26.3,0,.5.41.32.49.32.92,0l1.11-.73a.3.3,0,0,0,.13-.12Z"/></svg>