<svg xmlns="http://www.w3.org/2000/svg" xmlns:xlink="http://www.w3.org/1999/xlink" viewBox="0 0 40 40"><defs><style>.a{fill:url(#a);}.b{fill:#fff;}</style><linearGradient id="a" x1="5.86" y1="34.14" x2="34.14" y2="5.86" gradientUnits="userSpaceOnUse"><stop offset="0" stop-color="#cfc0a6"/><stop offset="1" stop-color="#e0d7c6"/></linearGradient></defs><circle class="a" cx="20" cy="20" r="20"/><path class="b" d="M2.49,14.31a22,22,0,0,0,3-2.25c.53-.42,1-.86,1.56-1.29a4.79,4.79,0,0,1,3.75-1.12,2,2,0,0,1,1.48.84c1.72,2.32,3.49,4.6,5.25,6.89.17.23.2.37,0,.61-.41.47-.4.48-1,.29l-1.95-.63a.69.69,0,0,0-.74.13.65.65,0,0,0,.3,1.09c.74.26,1.49.5,2.24.73.24.07.36.17.36.45s-.13.36-.36.44c-2.71.91-5.43,1.81-8.13,2.75a2,2,0,0,1-1.62-.11,4.64,4.64,0,0,1-2.51-3c-.45-1.6-.8-3.24-1.31-4.82a5.31,5.31,0,0,0-.33-.83Z"/><path class="b" d="M29.33,34.85c-1.27,0-2.53.09-3.79.2a5.29,5.29,0,0,1-3.83-1,3.46,3.46,0,0,1-.61-.6,1.67,1.67,0,0,1-.35-1c0-2.92,0-5.84,0-8.76,0-.19,0-.39.21-.48a.36.36,0,0,1,.52.14c.44.63.9,1.24,1.35,1.85a.75.75,0,0,0,.46.38.62.62,0,0,0,.7-.25.66.66,0,0,0,0-.77c-.45-.63-.9-1.26-1.37-1.88-.21-.26-.24-.47,0-.7a.45.45,0,0,0,.11-.17c.11-.3.31-.29.57-.2l6.81,2.29c.48.17,1,.35,1.46.49a1.72,1.72,0,0,1,1.08.87,4.73,4.73,0,0,1,.28,4.16A53.2,53.2,0,0,0,31,34.64a.29.29,0,0,1-.33.22Z"/><path class="b" d="M19.48,28.1c0,1.39,0,2.79,0,4.18a1.8,1.8,0,0,1-.5,1.3,4.74,4.74,0,0,1-3.86,1.56c-1.88-.09-3.75-.29-5.63-.21-.14,0-.27,0-.31-.18a41.92,41.92,0,0,0-1.91-5.19,5.18,5.18,0,0,1-.15-3.45,3.88,3.88,0,0,1,.33-.75,1.63,1.63,0,0,1,1-.82c2.74-.91,5.47-1.84,8.2-2.77.48-.16.47-.15.77.26a.34.34,0,0,1,0,.48c-.39.52-.77,1-1.15,1.58-.09.13-.19.25-.27.39a.68.68,0,0,0,.11.95.69.69,0,0,0,.94-.2c.46-.62.94-1.23,1.36-1.88.26-.41.54-.19.83-.14s.26.27.26.48Z"/><path class="b" d="M19.33,15.39v1.19c0,.19,0,.34-.23.4s-.29-.07-.39-.2c-1.74-2.29-3.45-4.6-5.25-6.84a2.43,2.43,0,0,1-.34-2.63,5,5,0,0,1,2.14-2.59c1.45-.88,2.89-1.78,4.25-2.8.47-.36.46-.36.93,0,1.41,1.07,2.94,2,4.42,2.92a4.8,4.8,0,0,1,2.2,3.47,1.73,1.73,0,0,1-.32,1.29C25,12,23.26,14.38,21.54,16.77c-.17.23-.3.34-.61.24s-.32-.31-.32-.55c0-.75,0-1.49,0-2.23,0-.48-.24-.74-.65-.74s-.62.25-.63.73v1.17Z"/><path class="b" d="M25.6,17.6a1.48,1.48,0,0,0-.45.11c-.7.22-1.41.44-2.11.69-.32.12-.38-.12-.53-.28a.33.33,0,0,1,0-.48L28,10.14a1.76,1.76,0,0,1,1.42-.63A5,5,0,0,1,33,10.68c1.26,1.07,2.52,2.14,3.86,3.11.21.15.54.22.61.46s-.15.48-.23.73c-.53,1.61-.9,3.27-1.34,4.91A4.77,4.77,0,0,1,33.52,23a1.79,1.79,0,0,1-1.57.14c-2.76-1-5.54-1.87-8.32-2.81l-.23-.08c-.15-.05-.19-.16-.2-.31s.11-.21.23-.24l2.28-.74a.71.71,0,0,0,.57-.78A.65.65,0,0,0,25.6,17.6Z"/><path class="b" d="M21.88,20.06A1.89,1.89,0,0,1,20,22,1.93,1.93,0,0,1,18,20.08a2,2,0,0,1,2-1.94A1.94,1.94,0,0,1,21.88,20.06Z"/></svg>