<svg xmlns="http://www.w3.org/2000/svg" xmlns:xlink="http://www.w3.org/1999/xlink" viewBox="0 0 40 40"><defs><style>.a{fill:url(#a);}.b{fill:#fff;}.c{fill:none;stroke:#fff;stroke-miterlimit:10;stroke-width:0.6px;}.d{fill:url(#b);}.e{fill:url(#c);}.f{fill:url(#d);}</style><linearGradient id="a" x1="5.86" y1="34.14" x2="34.14" y2="5.86" gradientUnits="userSpaceOnUse"><stop offset="0" stop-color="#cfc0a6"/><stop offset="1" stop-color="#e0d7c6"/></linearGradient><linearGradient id="b" x1="18.59" y1="34.87" x2="21.55" y2="34.87" xlink:href="#a"/><linearGradient id="c" x1="22.84" y1="29.42" x2="27.05" y2="29.42" xlink:href="#a"/><linearGradient id="d" x1="12.92" y1="29.42" x2="17.13" y2="29.42" xlink:href="#a"/></defs><circle class="a" cx="20" cy="20" r="20"/><path class="b" d="M19.87,37.78a8.45,8.45,0,0,0,4.74-1.44l0,0c.19-.13.37-.27.56-.42a8.44,8.44,0,0,0,1.5-1.64,8.18,8.18,0,0,0,1.51-4.82c0-.64,0-1.29,0-1.93v-.36c0-.33,0-.47-.23-.53a1.42,1.42,0,0,0-.33,0c-3.44,0-6.87,0-10.29,0a.83.83,0,0,1-.81-.49,8.88,8.88,0,0,1-.62-1.75c-.13-.4-.25-.8-.37-1.2,0-.09-.1-.18-.15-.27s-.11-.16-.2-.14-.15.1-.18.19a7.23,7.23,0,0,0-.25,1,15.24,15.24,0,0,1-.39,1.85c0,.14-.1.27-.14.41a.59.59,0,0,1-.64.39q-.78,0-1.56,0a.74.74,0,0,0-.28.05c-.14.06-.2.18-.2.41v.3a25.51,25.51,0,0,0,.09,3.27,8.06,8.06,0,0,0,2.71,5.08,8.08,8.08,0,0,0,.65.54A9.53,9.53,0,0,0,19.87,37.78Z"/><path class="c" d="M33.61,19.15a14.31,14.31,0,0,0-2.41-4.21h0l0,0h0A14.68,14.68,0,0,0,30,13.66h0a14.48,14.48,0,0,0-10-4,13.81,13.81,0,0,0-3.17.35A14.51,14.51,0,0,0,5.47,24.15c0,.12,0,.25,0,.37h0A15,15,0,0,0,6,27.89H6l.06.2a11.39,11.39,0,0,0,6,7,16.68,16.68,0,0,0,3,1.16,7.93,7.93,0,0,1-.65-.53,8.06,8.06,0,0,1-2.71-5.09,30.35,30.35,0,0,1-.09-3.57c0-.33.12-.44.48-.45.52,0,1,0,1.56,0a.59.59,0,0,0,.64-.39c0-.14.1-.27.13-.41a13.59,13.59,0,0,0,.4-1.85A6.18,6.18,0,0,1,15,23c0-.08.07-.18.18-.18s.16.06.2.14a2.34,2.34,0,0,1,.15.27c.12.4.23.79.36,1.19a10,10,0,0,0,.63,1.76.81.81,0,0,0,.8.48c3.43,0,6.86,0,10.3,0,.47,0,.56.08.56.56,0,.76,0,1.52,0,2.29a8.13,8.13,0,0,1-1.51,4.81,8.3,8.3,0,0,1-2.09,2.09,17.76,17.76,0,0,0,3.79-1.48,11,11,0,0,0,5.4-6.25,14.41,14.41,0,0,0-.18-9.51Z"/><path class="d" d="M21.55,34.42a1.67,1.67,0,0,1-1.5,1.51,1,1,0,0,1-.42-.11,1.51,1.51,0,0,1-.58-.4,1.48,1.48,0,0,1-.45-1.12c0-.41.23-.59.59-.42a1.84,1.84,0,0,0,1.72,0,.5.5,0,0,1,.44,0,.12.12,0,0,1,0,.05l0,0A.74.74,0,0,1,21.55,34.42Z"/><path class="e" d="M27,28.91a.93.93,0,0,1-1.11.39l-.54-.19c.2.55.15.85-.15,1.11a.8.8,0,0,1-.83.11l-.07,0-.11-.08A.34.34,0,0,1,24,30.1a1,1,0,0,1-.1-.9h0a1.39,1.39,0,0,0-.53.46c-.1.12-.21.23-.36.15l-.09-.05c-.14-.14,0-.28.06-.41a2.2,2.2,0,0,1,2.59-.7l.29.13a.51.51,0,0,0,.72-.18c.1-.12.21-.23.36-.13l.07.06C27.1,28.66,27,28.79,27,28.91Z"/><path class="f" d="M17.05,29.78a.23.23,0,0,1-.25,0,.47.47,0,0,1-.12-.09l0,0-.18-.19-.18-.17-.11-.08L16,29.17a.83.83,0,0,1-.32,1.13.78.78,0,0,1-.78,0l-.11-.08c-.29-.25-.33-.54-.15-1.1,0,0,0,0,0,0l-.57.19a.88.88,0,0,1-.66-.06.72.72,0,0,1-.31-.21.39.39,0,0,1-.08-.1.47.47,0,0,1-.07-.12A.22.22,0,0,1,13,28.5a.2.2,0,0,1,.24,0s.05,0,.08.06a1.59,1.59,0,0,0,.37.31c.14.06.27,0,.59-.13a2.29,2.29,0,0,1,1.95,0,2.06,2.06,0,0,1,.58.45,1.63,1.63,0,0,1,.17.2h0C17.12,29.51,17.19,29.65,17.05,29.78Z"/><path class="c" d="M20.35,3.06A7.91,7.91,0,0,1,25.46,5a4.79,4.79,0,0,1,1.72,4.47.9.9,0,0,1,0,.16c-.32,1.11-.51,1-1.31.69a14.49,14.49,0,0,0-12,.18c-.32.15-.47.1-.61-.22a4.17,4.17,0,0,1,.33-3.92,6.47,6.47,0,0,1,3.81-2.85A9.29,9.29,0,0,1,20.35,3.06Z"/><path class="c" d="M12.47,2.32a1.08,1.08,0,0,1,1,.08l1.06.69c.35.23.35.4,0,.66-.54.43-.65.43-1.22.06l-1.48-1a.57.57,0,0,1-.18-.16Z"/><path class="c" d="M28,2.66a1.1,1.1,0,0,0-1,.07l-1.06.7c-.35.23-.35.4,0,.66.54.43.64.43,1.21.06s1-.65,1.49-1A.73.73,0,0,0,28.8,3Z"/></svg>