<svg xmlns="http://www.w3.org/2000/svg" xmlns:xlink="http://www.w3.org/1999/xlink" viewBox="0 0 40 40"><defs><style>.a{fill:url(#a);}.b{fill:#fff;}</style><linearGradient id="a" x1="5.86" y1="34.14" x2="34.14" y2="5.86" gradientUnits="userSpaceOnUse"><stop offset="0" stop-color="#cfc0a6"/><stop offset="1" stop-color="#e0d7c6"/></linearGradient></defs><circle class="a" cx="20" cy="20" r="20"/><path class="b" d="M14,4a7.24,7.24,0,0,0-2.51,2.47,7.08,7.08,0,0,0-.56,1.14c-.2.51-.05.73.49.75a6,6,0,0,1,4.27,1.89,6.07,6.07,0,0,1,1.44,6.5,6,6,0,0,1-5.16,4.2,6.18,6.18,0,0,1-7-5.51c-.29-4,.93-7.44,4.32-9.87A9.41,9.41,0,0,1,13.56,3.9h.26S13.87,3.91,14,4Z"/><path class="b" d="M10.26,31.91c.17,0,.26.06.37.11a7.15,7.15,0,0,0,4.22.68c.6-.09.72-.32.45-.86a6.33,6.33,0,1,1,8.54,2.71,11.84,11.84,0,0,1-6,1.55A9.4,9.4,0,0,1,10.31,32,.59.59,0,0,1,10.26,31.91Z"/><path class="b" d="M34.14,20.58c0-.42-.1-.83-.17-1.24a6.85,6.85,0,0,0-1.38-3.07c-.41-.53-.64-.53-1,0a6.14,6.14,0,0,1-5.25,2.89,6.33,6.33,0,1,1,.08-12.66,6,6,0,0,1,3,.84,11.81,11.81,0,0,1,4.83,5,9.37,9.37,0,0,1,.09,8C34.29,20.46,34.27,20.55,34.14,20.58Z"/></svg>