<svg xmlns="http://www.w3.org/2000/svg" xmlns:xlink="http://www.w3.org/1999/xlink" viewBox="0 0 40 40"><defs><style>.a{fill:url(#a);}.b{fill:#fff;}.c{fill:none;stroke:#fff;stroke-miterlimit:10;stroke-width:0.6px;}.d{fill:url(#b);}.e{fill:url(#c);}.f{fill:url(#d);}.g{fill:url(#e);}.h{fill:url(#f);}</style><linearGradient id="a" x1="5.86" y1="34.14" x2="34.14" y2="5.86" gradientUnits="userSpaceOnUse"><stop offset="0" stop-color="#cfc0a6"/><stop offset="1" stop-color="#e0d7c6"/></linearGradient><linearGradient id="b" x1="15.22" y1="29.07" x2="24.57" y2="29.07" xlink:href="#a"/><linearGradient id="c" x1="22.63" y1="22.74" x2="29.47" y2="22.74" xlink:href="#a"/><linearGradient id="d" x1="10.4" y1="22.74" x2="17.25" y2="22.74" xlink:href="#a"/><linearGradient id="e" x1="22.83" y1="19.07" x2="30.63" y2="19.07" xlink:href="#a"/><linearGradient id="f" x1="9.17" y1="19.09" x2="17" y2="19.09" xlink:href="#a"/></defs><circle class="a" cx="20" cy="20" r="20"/><path class="b" d="M33.64,28.2a5.19,5.19,0,0,0,1.68-2.85c.16-.89-.28-1.28-1.14-1a3.41,3.41,0,0,0-1.17.7c-.2.17-.42.38-.7.19s-.19-.49-.1-.76.13-.37.18-.54A11.39,11.39,0,0,0,33,20.11a11.24,11.24,0,0,0-2.78-7.56c-.37-.41-.25-.72.28-.88s1.14-.32,1.71-.46.4-.27.12-.54a16.87,16.87,0,0,0-4-2.9,15.14,15.14,0,0,0-3.36-1.28c0,.11,0,.17,0,.21.07.28.29.58,0,.85s-.61,0-.91,0c-.13,0-.25-.09-.38-.13a11.47,11.47,0,0,0-4.28-.54,16.76,16.76,0,0,0-3.51.75c-.57.16-.8-.08-.66-.64,0-.16.18-.31,0-.5l-1.07.34a16.82,16.82,0,0,0-6.21,3.78c-.52.49-.52.51.14.7.43.14.85.24,1.27.35.71.19.81.47.33,1A11.34,11.34,0,0,0,7,20.09a12.07,12.07,0,0,0,.75,4.37c.1.27.25.56-.08.77s-.53,0-.75-.21a3.53,3.53,0,0,0-1-.62c-.37-.14-.77-.27-1.09,0a1,1,0,0,0-.18,1A5.65,5.65,0,0,0,6.5,28.38c.21.17.46.31.39.64s-.37.28-.64.4A13.58,13.58,0,0,0,8.66,32c5.53,4.38,11.62,5.23,18.18,2.8a15.52,15.52,0,0,0,6.77-5c.21-.27.41-.46-.16-.5s-.54-.39-.24-.73A5.22,5.22,0,0,1,33.64,28.2Z"/><path class="c" d="M36.88,13.81a16.81,16.81,0,0,0-.72-1.69,5.36,5.36,0,0,0-2.11-2,18.53,18.53,0,0,0-9.48-5.43.82.82,0,0,1-.64-.56c-.21-.56-.43-1.1-.63-1.66a.51.51,0,0,0-.09-.18A17,17,0,0,0,20,2a18.37,18.37,0,0,0-3,.24,1.58,1.58,0,0,0-.13.26c-.19.54-.42,1.07-.6,1.61a.82.82,0,0,1-.69.57A18.56,18.56,0,0,0,6.23,10c-.14.14-.25.35-.44.34-.59,0-.84.38-1.14.74s-.65.83-.93,1.25A17.91,17.91,0,0,0,2,20v.45H2a18.39,18.39,0,0,0,.59,4.16h0a18,18,0,0,0,10.54,12l1.35.5A17.53,17.53,0,0,0,20,38h.31a17.72,17.72,0,0,0,6.45-1.32A18,18,0,0,0,36.88,13.81ZM6.89,29m1.77,3"/><path class="d" d="M24,28l-.16,0A14.29,14.29,0,0,1,18,28.4a22.13,22.13,0,0,1-2.29-.47c-.16-.05-.35-.09-.45.11s0,.28.15.39a5,5,0,0,0,.41.39,6.72,6.72,0,0,0,4.24,1.44,6.49,6.49,0,0,0,2.87-.63,4.52,4.52,0,0,0,1.37-1c.14-.15.36-.3.24-.53S24.16,28,24,28Z"/><path class="e" d="M29.16,21.74a8.66,8.66,0,0,0-2.42-.37A5.8,5.8,0,0,0,23,22.55c-.15.13-.38.28-.3.5s.37.14.55.1a1,1,0,0,1,1.19.43,1.34,1.34,0,0,0,2.27-.23c.28-.77.76-.88,1.4-.94.36,0,.71-.11,1.07-.17.15,0,.33,0,.34-.23S29.3,21.78,29.16,21.74Z"/><path class="f" d="M15.44,23.63c.41-.51.78-.63,1.25-.46.25,0,.45.11.54-.11s-.1-.31-.21-.43l-.13-.11c-1.67-1.41-4.5-1.34-6.27-.75-.1,0-.22.1-.22.23s.15.21.28.23c.51.08,1,.18,1.52.23a.89.89,0,0,1,.9.67A1.36,1.36,0,0,0,15.44,23.63Z"/><path class="g" d="M30.1,17.87c-1.38.27-2.76.54-4.14.83a20.2,20.2,0,0,0-2.66.64c-.27.1-.54.28-.46.63s.38.32.68.33l.26,0c2.16-.59,4.33-1.17,6.47-1.86.17-.05.42-.11.37-.35S30.3,17.83,30.1,17.87Z"/><path class="h" d="M16.32,20.34c.29,0,.58-.06.66-.38s-.17-.48-.42-.59a4.5,4.5,0,0,0-.81-.26L10.56,18c-.35-.07-.7-.13-1.06-.18a.26.26,0,0,0-.32.18c0,.15.06.25.19.31s.43.17.64.23l4.55,1.3Z"/></svg>