<svg xmlns="http://www.w3.org/2000/svg" xmlns:xlink="http://www.w3.org/1999/xlink" viewBox="0 0 40 40"><defs><style>.a{fill:url(#a);}.b{fill:#fff;}</style><linearGradient id="a" x1="5.86" y1="34.14" x2="34.14" y2="5.86" gradientUnits="userSpaceOnUse"><stop offset="0" stop-color="#edd18c"/><stop offset="1" stop-color="#f3df8d"/></linearGradient></defs><circle class="a" cx="20" cy="20" r="20"/><path class="b" d="M24.23,15.88c-3,4.73-5.81,9.19-8.64,13.64-.83,1.34-1.7,2.65-2.51,4l-.35-.13a18.92,18.92,0,0,1-4.88-2.9c3-4.64,5.89-9.29,8.83-13.95a1.14,1.14,0,0,1,1.07-.67C19.81,15.9,21.88,15.88,24.23,15.88Z"/><path class="b" d="M29.69,32.19a18.27,18.27,0,0,1-2.43,1.2,19.11,19.11,0,0,1-3.14,1l-.07-.17c-1.15-2.94-2.33-5.88-3.5-8.81a1.08,1.08,0,0,1-.08-1c1.11-1.85,2.22-3.69,3.48-5.8,2,4.66,3.8,9,5.65,13.3A1.17,1.17,0,0,1,29.69,32.19Z"/><path class="b" d="M37.08,13.2a43.58,43.58,0,0,1-10.63,2.15.93.93,0,0,0-.68.41L25,16.94a.89.89,0,0,0-.08.81L27,23.18A53.6,53.6,0,0,0,38.47,21c0-.24,0-.49,0-.74A18.55,18.55,0,0,0,37.08,13.2Zm-34.16,0a18.55,18.55,0,0,0-1.4,7.08c0,.25,0,.5,0,.74a51.32,51.32,0,0,0,9.73,2l4.64-7.47A46.87,46.87,0,0,1,2.92,13.2Z"/></svg>