<svg xmlns="http://www.w3.org/2000/svg" xmlns:xlink="http://www.w3.org/1999/xlink" viewBox="0 0 40 40"><defs><style>.a{fill:url(#a);}.b{fill:#fff;}</style><linearGradient id="a" x1="5.86" y1="34.14" x2="34.14" y2="5.86" gradientUnits="userSpaceOnUse"><stop offset="0" stop-color="#edd18c"/><stop offset="1" stop-color="#f3df8d"/></linearGradient></defs><circle class="a" cx="20" cy="20" r="20"/><path class="b" d="M14.42,13.84c-1.22,0-2.72,0-4.22,0A4.42,4.42,0,0,1,6.09,10,4.34,4.34,0,0,1,9.73,5.14a1.44,1.44,0,0,0,1.21-.86A4.13,4.13,0,0,1,14.86,2.1a4.22,4.22,0,0,1,3.85,2.58.6.6,0,0,0,.58.4A4.16,4.16,0,0,1,23,7.74a4.14,4.14,0,0,1-.66,4.49,4.51,4.51,0,0,1-3.75,1.61Z"/><path class="b" d="M32.76,18.53a11.54,11.54,0,0,1-3.89,5.86l-1.15.95a.59.59,0,0,0-.26.51,16.06,16.06,0,0,1-1.27,6.23,7.46,7.46,0,0,0-.37,1.22,1.48,1.48,0,0,0,.63,1.57,7.58,7.58,0,0,0,1.81.88c.18.08.36.14.55.21a18.64,18.64,0,0,1-13.55,1.18s0,0,0-.07a.85.85,0,0,1,.47-.88,3.32,3.32,0,0,1,.94-.29,5.8,5.8,0,0,0,2.73-1.34,18.45,18.45,0,0,0,2.17-2.07c.14-.16.34-.31.23-.57s-.38-.21-.62-.2-.61,0-.91,0c-2.27,0-4.52.08-6.79.06A5.05,5.05,0,0,1,9,29.26c-.07-.12-.21-.25-.13-.39s.27-.08.41-.08h1.57a3,3,0,0,1,1.74.3,1.35,1.35,0,0,0,.75.15c2.5-.05,5-.08,7.51-.12.87,0,1.76,0,2.63,0a.74.74,0,0,0,.69-.39,5.22,5.22,0,0,0-2.39-7.41c-1.44-.63-2.9-1.23-4.35-1.85a7.82,7.82,0,0,1-3.7-3.26c-.21-.36-.18-.41.22-.41h2.31a.58.58,0,0,1,.45.12,7.84,7.84,0,0,0,2.86,1.66c1.09.45,2.16.91,3.24,1.38a7.58,7.58,0,0,1,3.58,3.18c.34.54.49.57,1,.16a8.81,8.81,0,0,0,2.69-3.82.52.52,0,0,1,.6-.43c.58,0,1.15,0,1.73,0S32.9,18.05,32.76,18.53Z"/><path class="b" d="M9.89,26.83c-1.35,0-2.43,0-3.52,0a3.84,3.84,0,0,1-.64-7.65.65.65,0,0,0,.56-.38,3.7,3.7,0,0,1,3.38-2,3.73,3.73,0,0,1,3.4,2,.58.58,0,0,0,.5.35,3.83,3.83,0,0,1,.09,7.58C12.32,26.94,11,26.78,9.89,26.83Z"/><path class="b" d="M30.57,16.57h-3.3A3.7,3.7,0,0,1,23.6,12.9a3.66,3.66,0,0,1,3.24-3.77.54.54,0,0,0,.43-.29,3.74,3.74,0,0,1,6.61,0,.54.54,0,0,0,.45.3,3.74,3.74,0,0,1,.23,7.37,5,5,0,0,1-.77.07Z"/></svg>