<svg xmlns="http://www.w3.org/2000/svg" xmlns:xlink="http://www.w3.org/1999/xlink" viewBox="0 0 40 40"><defs><style>.a{fill:url(#a);}.b{fill:#fff;}</style><linearGradient id="a" x1="5.86" y1="34.14" x2="34.14" y2="5.86" gradientUnits="userSpaceOnUse"><stop offset="0" stop-color="#edd18c"/><stop offset="1" stop-color="#f3df8d"/></linearGradient></defs><circle class="a" cx="20" cy="20" r="20"/><path class="b" d="M14.75,4.75a7.24,7.24,0,0,0-2.51,2.47,7.08,7.08,0,0,0-.56,1.14c-.2.51,0,.73.49.75A6,6,0,0,1,16.44,11a6.07,6.07,0,0,1,1.44,6.5,6,6,0,0,1-5.16,4.2,6.18,6.18,0,0,1-7-5.51c-.29-4,.93-7.44,4.32-9.87A9.41,9.41,0,0,1,14.36,4.7h.26S14.67,4.71,14.75,4.75Z"/><path class="b" d="M11.06,32.71c.17,0,.26.06.37.11a7.15,7.15,0,0,0,4.22.68c.6-.09.72-.32.45-.86a6.33,6.33,0,1,1,8.54,2.71,11.84,11.84,0,0,1-6,1.55,9.4,9.4,0,0,1-7.52-4.06A.59.59,0,0,1,11.06,32.71Z"/><path class="b" d="M34.94,21.38c0-.42-.1-.83-.17-1.24a6.85,6.85,0,0,0-1.38-3.07c-.41-.53-.64-.53-1,0A6.14,6.14,0,0,1,27.13,20a6.33,6.33,0,1,1,.08-12.66,6,6,0,0,1,3,.84,11.81,11.81,0,0,1,4.83,5,9.37,9.37,0,0,1,.09,8C35.09,21.26,35.07,21.35,34.94,21.38Z"/></svg>