<svg xmlns="http://www.w3.org/2000/svg" xmlns:xlink="http://www.w3.org/1999/xlink" viewBox="0 0 40 40"><defs><style>.a{fill:url(#a);}.b{fill:#fff;}</style><linearGradient id="a" x1="5.86" y1="34.14" x2="34.14" y2="5.86" gradientUnits="userSpaceOnUse"><stop offset="0" stop-color="#edd18c"/><stop offset="1" stop-color="#f3df8d"/></linearGradient></defs><circle class="a" cx="20" cy="20" r="20"/><path class="b" d="M37.62,17.77c-.12-.59-.3-1.15-.45-1.76l-2.12.58A14.14,14.14,0,0,1,34.43,27a15,15,0,0,1-7.7,7.51,16.26,16.26,0,0,1-16-1.47H24.59l0-.12a13.9,13.9,0,0,0-7.07-1.86l.43-.32a14.11,14.11,0,0,0,4.86-5.66,5.35,5.35,0,0,0,.54-2.55,2.23,2.23,0,0,0-1.93-2.17l-.31-.09.17-.17q3.44-3,6.9-6.05a.78.78,0,0,1,.5-.15,13.72,13.72,0,0,0,7-1.71,1.92,1.92,0,0,0,.28-.18S36,12,36,12H33.24A3.62,3.62,0,0,0,34.94,10a2.9,2.9,0,0,0,.16-.69.37.37,0,0,0,0-.27h0s0,0,0,0a.87.87,0,0,0-.55,0l-.26,0a13.89,13.89,0,0,1-5,0c-.85-.18-1-.05-.86.42a4.05,4.05,0,0,0,1.28,2,3.89,3.89,0,0,0,.67.44c-.53,0-1,0-1.37,0a1.85,1.85,0,0,0-1.13.3l-6.07,3.52c-.11.06-.23.11-.38.2q-1.8-3.4-3.55-6.75a.83.83,0,0,1,.36.08,4.55,4.55,0,0,0,6.43-3,.49.49,0,0,0-.26-.62c-.59-.35-1.15-.73-1.76-1.12.34-.38.64-.73,1-1.13-1-.43-1.84-.83-2.76-1.21a3.29,3.29,0,0,0-.6-.21h-.68c-.22,0-.45,0-.67,0l-.68,0a2.22,2.22,0,0,0-1,.28,4.11,4.11,0,0,0-.92.78c-.38.42-.74.87-1.14,1.28a1.53,1.53,0,0,1-.65.41A17.19,17.19,0,0,0,2.05,20.52a18,18,0,0,0,17,17.42c.32,0,.63,0,.95,0h.34l.84,0,.66-.05A18,18,0,0,0,38,20.57,15.94,15.94,0,0,0,37.62,17.77ZM13.43,15.41l7.38,4.9a9,9,0,0,0-4,1.3,16.11,16.11,0,0,0-3.33,2.6Z"/></svg>