<svg xmlns="http://www.w3.org/2000/svg" xmlns:xlink="http://www.w3.org/1999/xlink" viewBox="0 0 40 40"><defs><style>.a{fill:url(#a);}.b{fill:#fff;}</style><linearGradient id="a" x1="5.86" y1="34.14" x2="34.14" y2="5.86" gradientUnits="userSpaceOnUse"><stop offset="0" stop-color="#758427"/><stop offset="1" stop-color="#a4ac59"/></linearGradient></defs><circle class="a" cx="20" cy="20" r="20"/><path class="b" d="M10.25,5.7c.2.09.28.18.22.43a6.48,6.48,0,0,0,5.77,7.8,10,10,0,0,1,1.64.15,5.28,5.28,0,0,1,2.74,8.69A8.27,8.27,0,0,0,19.1,25a10.3,10.3,0,0,0-.54,4.37.24.24,0,0,0,.15.24c.14.06.23,0,.32-.12,1.4-1.43,2.86-2.8,4.2-4.28a8.57,8.57,0,0,0,2-8.33,8.7,8.7,0,0,0-8.31-6.43,1.39,1.39,0,0,1-.72-.19,1.15,1.15,0,0,1-.48-1.29,1.08,1.08,0,0,1,1.1-.79h16c-.2-.24-.41-.46-.62-.68l-.6-.1L21,5.41a3.88,3.88,0,0,1-1.95-.68A3.63,3.63,0,0,0,16.68,4H12.07L12,3.82A15.29,15.29,0,0,0,7.88,7a22.48,22.48,0,0,0-3,4.21l.09,0A21.62,21.62,0,0,1,8,7.16,16.36,16.36,0,0,1,9.85,5.54Z"/><path class="b" d="M38.76,19.5A3.86,3.86,0,0,0,35,22.64,15.62,15.62,0,0,1,19.73,35.09a15.3,15.3,0,0,1-6.27-1.32c-.23-.1-.46-.2-.69-.32,0-2.16,0-4.09,0-5a17.56,17.56,0,0,1,.16-3.07,12.32,12.32,0,0,1,3.55-6.72l2.4-2.42c.3-.3.28-.42-.08-.62a4,4,0,0,0-4.12,0,7.15,7.15,0,0,0-1.91,1.85,15.61,15.61,0,0,0-3.53,9.62c0,1.83,0,3.67,0,5.51v1.81a1.73,1.73,0,0,0,.86,1.49,18.14,18.14,0,0,0,2,1l.71.29a19.05,19.05,0,0,0,26-17.74Z"/><path class="b" d="M19.69,22.11a4.13,4.13,0,0,0,.61-4.95c-.21-.35-.32-.37-.6-.09-1,1-2,1.95-2.93,3a9.78,9.78,0,0,0-2.85,6.72c0,1,0,1.59,0,2.62V33c0,.14,0,.3.14.37s.23-.06.31-.14c1-1,1.88-1.91,2.83-2.85a.79.79,0,0,0,.24-.6c0-.86,0-1.73,0-2.59a4.92,4.92,0,0,1,.09-1.15A6.67,6.67,0,0,1,19.69,22.11Z"/></svg>