<svg xmlns="http://www.w3.org/2000/svg" xmlns:xlink="http://www.w3.org/1999/xlink" viewBox="0 0 40 40"><defs><style>.a{fill:url(#a);}.b{fill:#fff;}.c{fill:none;stroke:#fff;stroke-miterlimit:10;stroke-width:0.8px;}.d{fill:url(#b);}.e{fill:url(#c);}.f{fill:url(#d);}</style><linearGradient id="a" x1="5.86" y1="34.14" x2="34.14" y2="5.86" gradientUnits="userSpaceOnUse"><stop offset="0" stop-color="#758427"/><stop offset="1" stop-color="#a4ac59"/></linearGradient><linearGradient id="b" x1="12.75" y1="23.07" x2="16.66" y2="23.07" xlink:href="#a"/><linearGradient id="c" x1="23.13" y1="23.07" x2="27.05" y2="23.07" xlink:href="#a"/><linearGradient id="d" x1="19" y1="25.5" x2="21.02" y2="25.5" xlink:href="#a"/></defs><circle class="a" cx="20" cy="20" r="20"/><path class="b" d="M29.59,26.06a5.37,5.37,0,0,1-5.28,5.46H15.66a5.36,5.36,0,0,1-5.27-5.46V20.11h19.2Z"/><path class="c" d="M36.88,13.81a17.85,17.85,0,0,0-3-5.21h0a.1.1,0,0,0,0-.05h0A15.43,15.43,0,0,0,32.41,7h0A17.82,17.82,0,0,0,20,2a17,17,0,0,0-3.93.44A17.94,17.94,0,0,0,2.05,20v.45h0a18.4,18.4,0,0,0,.6,4.16h0a18,18,0,0,0,10.59,12A17.58,17.58,0,0,0,20,38h.31a17.52,17.52,0,0,0,6.45-1.33A18,18,0,0,0,36.88,13.81Z"/><path class="d" d="M12.75,23.29l3.91.09S15.31,22.07,12.75,23.29Z"/><path class="e" d="M27.05,23.29l-3.92.09S24.48,22.07,27.05,23.29Z"/><path class="f" d="M20,26.33h0l-.86-.86-.05-.07a.44.44,0,0,1-.08-.2s0,0,0,0V25.1s0,0,0,0a.44.44,0,0,1,.16-.29.46.46,0,0,1,.33-.11.8.8,0,0,1,.15,0,.91.91,0,0,1,.16.11l.2.2h0l.15-.15.08-.08a.49.49,0,0,1,.28-.11h.12a.46.46,0,0,1,.26.15.48.48,0,0,1,.11.4.55.55,0,0,1-.13.25l-.81.8Z"/><path class="b" d="M25.07,9.09c-2.07-.7-3.41-2.26-3-3.49s2.43-1.66,4.51-1,3.41,2.26,3,3.49-2.43,1.67-4.51,1"/></svg>